<svg width="16" height="16" viewBox="0 0 16 16" fill="none" xmlns="http://www.w3.org/2000/svg">
<path d="M4.70403 0.0406785C3.85389 0.0781612 3.26943 0.215639 2.76298 0.412576C2.2254 0.61574 1.74411 0.9283 1.34401 1.3378C0.93768 1.7379 0.621945 2.22237 0.421956 2.75373C0.225018 3.2631 0.0875407 3.84451 0.050058 4.69465C0.00940076 5.55114 -4.44712e-07 5.82304 -3.49758e-07 7.99533C-2.54804e-07 10.1676 0.00940097 10.4395 0.0468838 11.2928C0.0843667 12.143 0.221966 12.7274 0.418782 13.2338C0.621946 13.7715 0.934506 14.2528 1.34401 14.6529C1.74411 15.0592 2.22858 15.3748 2.75993 15.5749C3.26943 15.7719 3.85072 15.9093 4.70086 15.9468C5.55734 15.9875 5.82925 15.9969 8.00154 15.9969C10.1738 15.9969 10.4457 15.9875 11.2991 15.95C12.1492 15.9125 12.7337 15.7749 13.2401 15.578C13.7777 15.3748 14.259 15.0592 14.6591 14.6529C15.0654 14.2528 15.3811 13.7683 15.5811 13.2369C15.7781 12.7274 15.9155 12.1462 15.953 11.2959C15.9906 10.4427 15.9999 10.1707 15.9999 7.99839C15.9999 5.82609 15.9906 5.55419 15.953 4.70088C15.9155 3.85074 15.7781 3.26627 15.5811 2.75995C15.1654 1.68467 14.3153 0.834532 13.2401 0.418802C12.7306 0.221987 12.1492 0.0843875 11.2991 0.0469049C10.4457 0.00942228 10.1738 2.04836e-05 8.00154 2.05786e-05C5.82925 2.06735e-05 5.55734 0.00319482 4.70403 0.0406785ZM11.2365 1.48151C12.0179 1.51594 12.4399 1.64719 12.7212 1.75658C13.4182 2.02543 13.9714 2.57864 14.2403 3.27568C14.3497 3.55698 14.4809 3.98199 14.5152 4.76034C14.5529 5.60425 14.5621 5.85735 14.5621 7.99216C14.5621 10.127 14.5529 10.3832 14.5152 11.2241C14.4809 12.0055 14.3497 12.4275 14.2403 12.7088C14.1121 13.0556 13.9089 13.3714 13.6433 13.6276C13.3838 13.8933 13.0712 14.0965 12.7244 14.2247C12.4431 14.3341 12.0179 14.4653 11.2397 14.4996C10.3958 14.5372 10.1426 14.5465 8.00777 14.5465C5.87296 14.5465 5.61668 14.5372 4.77594 14.4996C3.99454 14.4653 3.57259 14.3341 3.29128 14.2247C2.94429 14.0965 2.62868 13.8933 2.37228 13.6245C2.10661 13.3651 1.90344 13.0526 1.77537 12.7056C1.66597 12.4243 1.53472 11.9992 1.50029 11.2209C1.46281 10.377 1.4534 10.1238 1.4534 7.98911C1.4534 5.85112 1.46281 5.59802 1.50029 4.75716C1.53472 3.97576 1.66597 3.55381 1.77537 3.2725C1.90344 2.92563 2.10661 2.6099 2.37228 2.35362C2.63173 2.08795 2.94429 1.88478 3.29128 1.75658C3.57259 1.64719 3.9976 1.51594 4.77594 1.48151C5.61986 1.44402 5.87296 1.43462 8.00777 1.43462C10.1426 1.43462 10.3926 1.44402 11.2365 1.48151Z" fill="#141313"/>
<path d="M3.8917 7.99609C3.8917 10.2652 5.73263 12.1063 8.00186 12.1063C10.2711 12.1063 12.112 10.2652 12.112 7.99609C12.112 5.72686 10.2711 3.88593 8.00186 3.88593C5.73263 3.88593 3.8917 5.72686 3.8917 7.99609ZM10.668 7.99609C10.668 9.46818 9.47407 10.6623 8.00186 10.6623C6.52966 10.6623 5.3357 9.46818 5.3357 7.99609C5.3357 6.52389 6.52966 5.32993 8.00186 5.32993C9.47407 5.32993 10.668 6.52389 10.668 7.99609Z" fill="#141313"/>
<path d="M3.72849 2.7637C4.25828 2.7637 4.68785 3.19327 4.68785 3.72317C4.68785 4.25296 4.25828 4.68253 3.72849 4.68253C3.19859 4.68253 2.76914 4.25296 2.76914 3.72318C2.76914 3.19327 3.19859 2.7637 3.72849 2.7637Z" fill="#141313"/>
</svg>
