<svg width="462" height="467" viewBox="0 0 462 467" fill="none" xmlns="http://www.w3.org/2000/svg">
<g clip-path="url(#clip0_1_572)">
<path d="M446.964 27.2605L445.33 22.4404C444.427 19.7783 442.327 17.6088 439.56 16.6712L434.74 15.0373C433.753 14.7024 433.753 13.3001 434.74 12.9653L439.56 11.3313C442.222 10.429 444.392 8.32828 445.33 5.56213L446.964 0.742085C447.298 -0.245681 448.701 -0.245462 449.036 0.742085L450.669 5.56213C451.572 8.22421 453.672 10.3937 456.439 11.3313L461.259 12.9653C462.247 13.3001 462.246 14.7025 461.259 15.0373L456.439 16.6712C453.777 17.5735 451.607 19.6742 450.669 22.4404L449.036 27.2605C448.701 28.2483 447.298 28.248 446.964 27.2605ZM438.499 14.0012L440.263 14.5991C443.557 15.7157 446.241 18.3151 447.402 21.738L448 23.5019L448.597 21.738C449.714 18.4439 452.313 15.7594 455.736 14.5991L457.5 14.0012L455.736 13.4033C452.442 12.2867 449.758 9.68732 448.597 6.26443L448 4.50048L447.402 6.26443C446.285 9.55847 443.686 12.243 440.263 13.4033L438.499 14.0012Z" fill="#141313"/>
</g>
<g clip-path="url(#clip1_1_572)">
<path d="M10.186 466.419L8.9022 462.631C8.19317 460.54 6.5427 458.835 4.36925 458.098L0.582028 456.815C-0.194074 456.552 -0.193945 455.45 0.582028 455.187L4.36925 453.903C6.46088 453.194 8.16545 451.543 8.9022 449.37L10.186 445.583C10.4491 444.807 11.551 444.807 11.814 445.583L13.0978 449.37C13.8069 451.462 15.4573 453.166 17.6308 453.903L21.418 455.187C22.1941 455.45 22.1939 456.552 21.418 456.815L17.6308 458.098C15.5392 458.807 13.8346 460.458 13.0978 462.631L11.814 466.419C11.5509 467.195 10.449 467.195 10.186 466.419ZM3.53518 456.001L4.92114 456.47C7.50932 457.348 9.61857 459.39 10.5302 462.08L11 463.465L11.4698 462.08C12.3472 459.491 14.3895 457.382 17.0789 456.47L18.4648 456.001L17.0789 455.531C14.4907 454.653 12.3815 452.611 11.4698 449.922L11 448.536L10.5302 449.922C9.65286 452.51 7.61051 454.619 4.92114 455.531L3.53518 456.001Z" fill="#141313"/>
</g>
<defs>
<clipPath id="clip0_1_572">
<rect width="28" height="28" fill="white" transform="translate(434)"/>
</clipPath>
<clipPath id="clip1_1_572">
<rect width="22" height="22" fill="white" transform="translate(0 445)"/>
</clipPath>
</defs>
</svg>
