<svg width="200" height="112" viewBox="0 0 200 112" fill="none" xmlns="http://www.w3.org/2000/svg">
<path d="M91.4079 80.0908C91.2902 80.2305 91.1627 80.2006 91.0548 80.1906C90.5937 80.1906 90.1229 80.1806 89.6619 80.1606C87.0821 80.0109 84.5122 79.951 81.9324 80.0109C80.0099 80.0508 78.0873 80.1307 76.1647 80.2405C73.6929 80.3902 71.2308 80.5798 68.7589 80.7595C66.6893 80.9092 64.6097 81.0889 62.5401 81.2286C60.7744 81.3484 59.0088 81.4282 57.2432 81.528C56.9685 81.548 56.6939 81.558 56.4291 81.6178C55.6836 81.7775 55.0558 82.1668 54.5653 82.7656C54.3986 82.9653 54.2515 83.1848 54.1043 83.3944C50.3475 88.7841 46.2375 93.8644 41.6861 98.5853C39.5184 100.831 37.2034 102.927 34.7316 104.833C32.2107 106.78 29.5034 108.387 26.5901 109.634C24.2458 110.632 21.8033 111.241 19.2628 111.481C15.81 111.81 12.475 111.281 9.23802 110.073C8.1198 109.664 7.031 109.185 5.97163 108.646C4.43162 107.868 3.08779 106.81 1.94014 105.512C0.812104 104.225 0.125476 102.717 0.00776766 100.981C-0.0216593 100.572 0.0371946 100.142 0.105858 99.7331C0.292228 98.5953 0.694397 97.5473 1.30255 96.5792C2.41097 94.8026 3.81365 93.3354 5.49099 92.1277C8.31598 90.1016 11.3666 88.5046 14.5839 87.2471C18.0171 85.8996 21.5385 84.8317 25.1286 83.9933C28.189 83.2747 31.2788 82.6758 34.3883 82.1867C36.4776 81.8574 38.5669 81.548 40.666 81.2785C42.7455 81.019 44.8348 80.8094 46.9143 80.5898C48.0914 80.47 49.2783 80.3802 50.4554 80.2704C50.7497 80.2405 51.0341 80.2105 51.3186 80.1407C52.1818 79.9311 52.8978 79.462 53.4373 78.7433C53.6237 78.4938 53.7904 78.2343 53.9572 77.9648C56.6939 73.6431 59.2344 69.2016 61.6769 64.7002C65.8653 56.995 69.681 49.1101 73.1338 41.0455C75.635 35.2067 77.9009 29.2781 79.8039 23.2097C80.8436 19.896 81.7362 16.5325 82.3738 13.109C82.5798 12.0311 82.7564 10.9432 82.8937 9.84529C83.0605 8.53779 82.982 7.22031 82.7171 5.93278C82.5994 5.34391 82.3934 4.79496 82.109 4.26597C81.4027 2.89859 80.2355 2.15002 78.7347 1.91048C77.8519 1.77075 76.9887 1.87056 76.1255 2.0602C73.7321 2.60914 71.4466 3.4675 69.22 4.47557C66.0909 5.89286 63.0795 7.52972 60.1369 9.3163C52.4074 14.0073 45.2174 19.4469 38.6159 25.675C35.2515 28.8389 32.1518 32.2524 29.4249 36.0052C27.9732 37.9914 26.698 40.0774 25.6877 42.3331C24.9716 43.95 24.3929 45.6068 24.0594 47.3535C23.8828 48.2917 23.8534 49.2299 24.0692 50.1681C24.2948 51.1861 24.7853 52.0545 25.5209 52.7731C26.0604 53.3021 26.6686 53.7312 27.3454 54.0407C28.8168 54.7094 30.3568 55.1086 31.9654 55.2483C32.9954 55.3382 34.0253 55.2783 35.0553 55.1984C36.8013 55.0687 38.5375 54.8291 40.2638 54.4798C41.1074 54.3101 41.951 54.1405 42.7946 54.0207C44.0109 53.851 45.2272 53.8311 46.4435 53.9808C47.0124 54.0506 47.1988 54.4898 46.8653 54.9489C46.7476 55.1186 46.571 55.1785 46.3748 55.1984C46.0708 55.2384 45.7569 55.2683 45.4528 55.2982C43.6774 55.4779 41.9118 55.7574 40.1461 56.0867C38.1843 56.446 36.2029 56.6856 34.2117 56.8253C32.7305 56.9351 31.2592 56.8752 29.7878 56.6656C28.7285 56.5159 27.6887 56.2864 26.6784 55.957C25.6092 55.6076 24.6087 55.0986 23.7063 54.4099C21.5973 52.813 20.6949 50.6571 20.9303 48.0122C21.0382 46.8544 21.3325 45.7465 21.666 44.6387C22.3821 42.2832 23.4414 40.0974 24.7068 38.0014C26.031 35.8056 27.5612 33.7595 29.1797 31.7833C31.73 28.6593 34.5354 25.7748 37.5173 23.07C43.8834 17.281 50.7595 12.2108 58.126 7.82915C61.3335 5.9228 64.6196 4.17614 68.0429 2.69897C70.1224 1.80069 72.2313 1.02218 74.4285 0.493197C74.9975 0.353465 75.5664 0.223713 76.1451 0.143866C77.9009 -0.0956754 79.6371 -0.0557518 81.3635 0.41335C84.5024 1.25174 85.807 3.6272 86.1601 5.96272C86.3661 7.35007 86.3465 8.75737 86.2287 10.1547C86.013 12.8096 85.444 15.4046 84.777 17.9797C83.5215 22.8005 81.9128 27.5115 80.1374 32.1526C77.077 40.1572 73.585 47.9723 69.8576 55.6775C67.4151 60.7079 64.8648 65.6883 62.1477 70.579C60.9216 72.7848 59.6562 74.9706 58.2928 77.0965C58.0083 77.5357 57.7435 77.9848 57.4688 78.4339C57.4001 78.5537 57.3217 78.6735 57.2824 78.8032C57.1843 79.1625 57.3903 79.4819 57.7533 79.5318C57.8906 79.5518 58.0279 79.5518 58.1652 79.5418C58.7832 79.5219 59.4012 79.5019 60.0191 79.472C61.6376 79.3921 63.2463 79.3222 64.8648 79.2324C66.444 79.1526 68.0233 79.0428 69.6025 78.9829C72.6237 78.8731 75.6449 78.7533 78.6758 78.6934C81.3439 78.6435 84.0021 78.8032 86.6505 79.1226C87.9649 79.2823 89.2793 79.452 90.5643 79.7614C90.7997 79.8213 91.0254 79.8911 91.2608 79.971C91.3098 79.991 91.349 80.0508 91.4079 80.0908ZM50.6319 82.3564C50.2102 82.2766 49.2391 82.2766 48.7682 82.3464C46.7378 82.6159 44.7171 82.8854 42.6867 83.1449C41.4213 83.3046 40.1658 83.4443 38.9004 83.604C36.4482 83.9234 34.0057 84.3426 31.5731 84.8017C28.0517 85.4605 24.5793 86.2889 21.1658 87.3469C18.998 88.0156 16.84 88.7342 14.7507 89.6425C12.3671 90.6705 10.111 91.9181 8.03152 93.4951C6.88387 94.3734 5.86373 95.3715 4.96131 96.5093C4.40219 97.208 3.94117 97.9566 3.61747 98.7949C2.97008 100.482 3.13683 102.089 4.09811 103.596C4.51009 104.245 5.00054 104.833 5.58908 105.322C6.11877 105.762 6.65826 106.201 7.21737 106.61C8.69853 107.678 10.2974 108.526 12.0434 109.055C14.3583 109.764 16.7125 109.804 19.0862 109.445C21.0382 109.155 22.8921 108.546 24.6872 107.708C27.2767 106.5 29.6996 105.013 31.9654 103.256C34.6237 101.2 37.0857 98.9147 39.4399 96.5093C41.7548 94.1339 43.9226 91.6287 45.9923 89.0436C47.2282 87.4966 48.4053 85.9096 49.6118 84.3326C49.9944 83.8336 50.2886 83.2847 50.5339 82.7058C50.5731 82.586 50.5927 82.4762 50.6319 82.3564Z" fill="#141313"/>
<path d="M200 90.3819C199.804 90.4417 199.599 90.4318 199.403 90.4218C198.1 90.4018 196.798 90.3819 195.495 90.342C194.124 90.3021 192.753 90.2422 191.382 90.1824C189.824 90.1025 188.267 90.0227 186.7 89.923C184.418 89.7733 182.146 89.6137 179.874 89.4341C178.131 89.2944 176.387 89.1248 174.644 88.9552C173.224 88.8155 171.814 88.6659 170.394 88.4963C168.738 88.2868 167.093 88.0673 165.448 87.8278C162.02 87.329 158.602 86.7304 155.194 86.0918C152.931 85.6628 150.679 85.2239 148.416 84.7949C145.919 84.326 143.412 83.9069 140.895 83.5677C138.838 83.2884 136.781 83.0389 134.715 82.7895C132.129 82.4802 129.534 82.1809 126.948 81.8816C126.625 81.8417 126.292 81.8218 125.979 81.7619C125.744 81.712 125.587 81.8018 125.43 81.9515C125.058 82.3306 124.666 82.7097 124.284 83.0789C121.268 86.032 118.261 89.0051 115.225 91.9483C112.209 94.8615 109.124 97.6849 105.872 100.329C104.021 101.835 102.121 103.272 100.084 104.519C97.9881 105.806 95.7649 106.804 93.3948 107.442C92.2588 107.742 91.1129 107.931 89.9376 107.831C88.3902 107.702 87.1562 107.013 86.2454 105.726C85.55 104.739 85.1779 103.621 84.982 102.434C84.7078 100.768 84.8155 99.1216 85.1485 97.4854C85.6578 94.9613 86.6371 92.6167 87.9397 90.4118C89.4773 87.8079 91.3675 85.5232 93.7376 83.6675C95.3144 82.4304 97.0283 81.4526 98.9577 80.9039C99.9665 80.6146 100.995 80.4051 102.023 80.2255C103.296 79.996 104.57 79.8364 105.853 79.7366C107.047 79.6468 108.252 79.5969 109.457 79.6468C111.357 79.7366 113.266 79.6767 115.166 79.547C116.489 79.4573 117.801 79.3675 119.123 79.4473C119.554 79.4772 119.975 79.5071 120.406 79.567C121.797 79.7566 122.943 79.3176 123.814 78.1802C126.684 74.4489 129.446 70.6377 131.884 66.5971C132.413 65.7192 132.893 64.8113 133.402 63.9133C133.5 63.7338 133.608 63.5542 133.716 63.3746C136.536 58.6556 139.357 53.9365 142.197 49.2374C143.96 46.3142 145.556 43.3012 147.114 40.2682C149.503 35.5991 151.736 30.8601 153.724 26.0014C155.174 22.4496 156.447 18.828 157.436 15.1166C157.662 14.2686 157.867 13.4206 158.044 12.5725C158.308 11.3155 158.337 10.0384 158.2 8.7614C158.132 8.17277 157.995 7.59411 157.76 7.04538C157.094 5.42914 155.879 4.51127 154.214 4.18203C153.274 3.99247 152.344 4.08226 151.403 4.22194C148.916 4.59108 146.506 5.29944 144.146 6.13749C140.581 7.40455 137.124 8.96094 133.745 10.677C127.017 14.089 120.631 18.0698 114.589 22.6292C113.276 23.6169 112.062 24.7343 110.887 25.8816C109.633 27.0988 108.409 28.3459 107.155 29.5631C106.146 30.5408 105.118 31.4886 104.09 32.4364C103.776 32.7258 103.424 32.9852 103.071 33.2246C102.797 33.4042 102.503 33.5638 102.199 33.6736C101.563 33.903 100.985 33.7634 100.476 33.3144C100.446 33.2944 100.427 33.2645 100.397 33.2446C99.7706 32.636 99.6824 32.1371 100.104 31.3689C100.319 30.9798 100.593 30.6107 100.877 30.2615C101.533 29.4534 102.297 28.745 103.081 28.0566C104.325 26.9591 105.627 25.9216 106.959 24.9338C111.366 21.6614 115.842 18.4689 120.435 15.4758C126.772 11.3454 133.461 7.91337 140.493 5.19967C142.785 4.31173 145.126 3.54351 147.515 2.98481C149.023 2.62564 150.542 2.37622 152.089 2.2565C152.843 2.19664 153.597 2.2565 154.351 2.33632C155.448 2.44606 156.516 2.70546 157.544 3.12449C159.542 3.95256 160.825 5.41916 161.373 7.54422C161.53 8.15281 161.618 8.77138 161.638 9.40989C161.687 11.1858 161.442 12.9317 161.08 14.6577C160.561 17.122 159.777 19.5065 158.925 21.871C157.427 26.0313 155.673 30.0719 153.773 34.0527C150.522 40.8868 146.947 47.5314 143.157 54.0662C139.886 59.7131 136.478 65.2702 132.864 70.6976C131.218 73.1718 129.495 75.5962 127.693 77.9508C127.556 78.1303 127.418 78.3099 127.291 78.4995C127.007 78.9385 127.085 79.3974 127.526 79.6767C127.693 79.7865 127.889 79.8863 128.084 79.9262C128.555 80.0359 129.025 80.1556 129.495 80.2055C130.582 80.3352 131.679 80.425 132.776 80.5447C133.461 80.6146 134.137 80.7143 134.823 80.7842C135.332 80.844 135.841 80.9039 136.36 80.9338C137.731 81.0236 139.093 81.2132 140.444 81.4227C142.697 81.7819 144.949 82.151 147.202 82.5301C149.523 82.9192 151.834 83.3382 154.146 83.7373C156.682 84.1763 159.219 84.6253 161.755 85.0543C164.39 85.5032 167.034 85.9522 169.679 86.3712C172.088 86.7603 174.497 87.1195 176.906 87.4687C179.081 87.7879 181.255 88.0772 183.429 88.3666C184.996 88.5761 186.563 88.7557 188.13 88.9253C190.402 89.1747 192.674 89.3942 194.937 89.6336C196.318 89.7833 197.699 89.9329 199.079 90.0826C199.334 90.1125 199.589 90.1524 199.843 90.1923C199.892 90.2322 199.981 90.2422 200 90.3819ZM120.2 81.6621C120.151 81.6322 120.122 81.5923 120.093 81.5923C119.515 81.5424 118.927 81.4526 118.349 81.4726C115.127 81.5624 111.905 81.6921 108.683 81.8018C106.9 81.8617 105.118 81.9814 103.355 82.2308C101.837 82.4503 100.348 82.7795 98.9087 83.3083C96.5289 84.1763 94.433 85.4932 92.6995 87.3888C91.3577 88.8355 90.2412 90.4417 89.4088 92.2476C88.3413 94.5323 87.5675 96.9167 87.3227 99.4508C87.2346 100.329 87.2639 101.197 87.4794 102.055C87.8712 103.661 88.9191 104.599 90.5253 104.818C91.2794 104.928 92.0335 104.868 92.7778 104.749C94.2077 104.519 95.5593 104.02 96.9108 103.501C98.135 103.023 99.2711 102.374 100.319 101.586C100.515 101.436 100.711 101.307 100.897 101.147C101.896 100.299 102.934 99.4808 103.894 98.5928C106.91 95.7893 109.917 92.9759 112.894 90.1325C115.078 88.0573 117.066 85.7826 119.045 83.5079C119.446 83.0489 119.779 82.5401 120.073 82.0013C120.122 81.8816 120.151 81.7719 120.2 81.6621Z" fill="#141313"/>
<path d="M180.843 69.8058C180.736 69.527 180.647 69.2879 180.559 69.039C180.206 68.0729 180.059 67.0869 180.167 66.0611C180.236 65.4237 180.451 64.8461 180.814 64.3182C181.167 63.8003 181.628 63.4219 182.216 63.2028C183.295 62.8144 184.393 62.7347 185.511 63.0434C186.344 63.2725 186.913 63.8203 187.286 64.5971C187.472 64.9855 187.413 65.2942 187.129 65.603C186.805 65.9416 186.491 66.0312 186.109 65.8619C185.854 65.7524 185.619 65.6129 185.432 65.3938C185.295 65.2345 185.148 65.0851 185.011 64.9357C184.844 64.7564 184.648 64.617 184.413 64.5274C183.932 64.3481 183.442 64.4875 183.099 64.876C182.912 65.0951 182.805 65.344 182.716 65.6129C182.452 66.4595 182.491 67.306 182.795 68.1327C183.079 68.9195 183.413 69.6863 183.726 70.4631C183.785 70.6026 183.873 70.742 183.962 70.8715C184.109 71.1006 184.324 71.1802 184.589 71.1105C184.775 71.0607 184.952 71.001 185.128 70.9312C186.992 70.2042 188.845 69.4772 190.708 68.7501C190.884 68.6804 191.061 68.6107 191.247 68.5609C191.365 68.531 191.482 68.5211 191.6 68.531C191.796 68.541 191.914 68.6705 191.943 68.8597C191.983 69.1485 191.934 69.4174 191.816 69.6764C191.777 69.756 191.679 69.8258 191.59 69.8656C191.355 69.9751 191.11 70.0648 190.875 70.1644C189.355 70.8018 187.825 71.4491 186.384 72.2658C186.119 72.4152 185.854 72.5945 185.599 72.7638C185.217 73.0227 185.06 73.3812 185.197 73.8493C185.295 74.168 185.374 74.4867 185.501 74.7955C185.844 75.6619 186.04 76.5583 186.119 77.4845C186.197 78.4506 185.884 79.2672 185.187 79.9345C184.844 80.2632 184.462 80.5221 184.05 80.7313C183.344 81.0998 182.599 81.3587 181.824 81.5479C180.726 81.8268 179.608 82.0459 178.48 82.1554C177.814 82.2152 177.147 82.2152 176.48 82.0857C175.852 81.9662 175.313 81.6874 174.862 81.2292C174.293 80.6416 174.136 79.9445 174.362 79.1577C174.489 78.7195 174.705 78.3211 174.98 77.9526C175.323 77.4745 175.735 77.0463 176.196 76.6778C176.696 76.2794 177.215 75.901 177.735 75.5325C178.627 74.905 179.52 74.2975 180.412 73.6601C180.706 73.451 180.981 73.2119 181.236 72.953C181.569 72.6144 181.706 72.1861 181.579 71.7081C181.569 71.6583 181.53 71.6184 181.491 71.5388C181.422 71.5985 181.353 71.6483 181.314 71.7081C180.363 73.0426 179.167 74.0983 177.784 74.9548C176.98 75.4628 176.147 75.9209 175.254 76.2495C173.205 77.0164 171.107 77.1857 168.979 76.628C168.498 76.4985 168.028 76.3292 167.596 76.0703C166.733 75.5524 166.184 74.8154 166.037 73.7896C166.018 73.6701 165.988 73.5506 165.959 73.3912C165.841 73.451 165.753 73.4808 165.674 73.5406C164.37 74.4369 162.978 75.154 161.566 75.8213C160.762 76.1997 159.918 76.2993 159.046 76.2097C158.909 76.1997 158.771 76.1599 158.644 76.13C158.095 75.9906 157.751 75.6321 157.595 75.0843C157.457 74.5863 157.487 74.0784 157.536 73.5804C157.614 72.7239 157.84 71.9073 158.173 71.1105C158.33 70.7221 158.467 70.3337 158.605 69.9353C158.663 69.7361 158.722 69.527 158.585 69.3377C158.34 69.2481 158.134 69.3577 157.948 69.4672C157.546 69.6963 157.134 69.9253 156.761 70.2042C156.094 70.6922 155.428 71.1902 154.78 71.7081C153.457 72.7737 152.221 73.929 151.044 75.154C150.878 75.3333 150.721 75.5125 150.554 75.6918C150.133 76.1499 149.613 76.4388 148.995 76.5284C148.701 76.5682 148.407 76.5284 148.152 76.3691C147.73 76.1002 147.603 75.7117 147.818 75.2436C147.946 74.9548 148.093 74.6859 148.24 74.4071C149.407 72.1363 150.574 69.8556 151.741 67.5849C151.819 67.4255 151.898 67.2762 151.986 67.1268C152.26 66.6985 152.643 66.4396 153.113 66.2703C153.78 66.0213 154.408 66.7483 154.329 67.2861C154.3 67.5052 154.221 67.7243 154.153 67.9434C154.065 68.2123 153.957 68.4613 153.868 68.7302C153.819 68.8597 153.79 68.9991 153.77 69.1386C153.751 69.2481 153.761 69.3676 153.868 69.4075C153.937 69.4373 154.045 69.4274 154.114 69.3975C154.271 69.3278 154.418 69.2282 154.565 69.1386C155.212 68.7402 155.839 68.3219 156.496 67.9434C157.036 67.6347 157.585 67.3459 158.153 67.0969C158.742 66.8379 159.36 66.6786 160.007 66.7085C160.056 66.7085 160.115 66.7085 160.164 66.7184C161.301 66.7981 161.948 67.5849 161.831 68.7203C161.801 69.029 161.723 69.3477 161.615 69.6365C161.281 70.5129 160.919 71.3794 160.566 72.2558C160.497 72.4351 160.428 72.6144 160.37 72.7936C160.311 73.0127 160.301 73.2418 160.36 73.4609C160.448 73.7497 160.585 73.8693 160.889 73.8493C161.056 73.8394 161.232 73.8095 161.389 73.7597C161.733 73.6402 162.066 73.5207 162.399 73.3713C163.743 72.7638 164.968 71.967 166.194 71.1603C166.361 71.0508 166.488 70.9213 166.547 70.7321C166.576 70.6325 166.625 70.5428 166.665 70.4432C167.165 69.3079 167.881 68.3418 168.842 67.565C170.293 66.3997 171.911 65.6528 173.774 65.5034C174.254 65.4636 174.735 65.4636 175.215 65.4735C175.578 65.4835 175.931 65.5631 176.254 65.7524C177.049 66.2205 177.412 67.0371 177.186 67.9335C177.117 68.2223 177 68.5012 176.862 68.7501C175.882 70.4432 174.47 71.4491 172.499 71.5686C171.616 71.6184 170.744 71.5886 169.881 71.4292C169.812 71.4192 169.744 71.4093 169.675 71.3993C169.234 71.3396 168.93 71.5089 168.802 71.9272C168.665 72.3953 168.616 72.8833 168.694 73.3812C168.812 74.0386 169.185 74.4867 169.783 74.7457C170.352 74.9947 170.96 75.1341 171.577 75.1839C172.372 75.2436 173.156 75.164 173.921 74.9349C174.931 74.6361 175.872 74.168 176.755 73.5804C177.519 73.0725 178.216 72.4849 178.873 71.8375C179.49 71.23 180.108 70.6225 180.716 70.015C180.726 69.9453 180.775 69.8855 180.843 69.8058ZM178.598 79.9245C179.765 79.9046 180.883 79.6756 181.961 79.2174C182.903 78.8191 183.305 78.1319 183.197 77.106C183.158 76.7475 183.109 76.379 183.04 76.0205C183.001 75.8213 182.942 75.6121 182.863 75.4229C182.687 74.9847 182.461 74.8851 182.01 75.0345C181.834 75.0943 181.657 75.1739 181.5 75.2735C179.971 76.2097 178.549 77.3052 177.255 78.5601C177.108 78.6995 176.98 78.8689 176.862 79.0382C176.657 79.317 176.764 79.7353 177.186 79.7652C177.647 79.815 178.118 79.8747 178.598 79.9245ZM171.92 69.9851C172.656 69.9751 173.372 69.7162 173.94 69.1186C174.264 68.78 174.431 68.3717 174.44 67.8936C174.45 67.3857 174.215 67.1666 173.715 67.1865C173.617 67.1965 173.509 67.2064 173.411 67.2363C172.381 67.4753 171.489 67.9733 170.724 68.7003C170.636 68.78 170.557 68.8796 170.499 68.9792C170.312 69.2879 170.361 69.4871 170.675 69.6664C171.038 69.8955 171.43 69.9851 171.92 69.9851Z" fill="#141313"/>
<path d="M93.8962 74.0524C93.7197 74.1616 93.553 74.2608 93.3962 74.3601C91.4059 75.601 89.2489 76.3653 86.9252 76.6234C86.3272 76.6929 85.7291 76.7227 85.131 76.7525C84.18 76.7922 83.2486 76.6433 82.3368 76.3455C81.2877 76.008 80.4151 75.4322 79.8661 74.4296C79.8465 74.3899 79.8072 74.3502 79.768 74.2906C79.6602 74.37 79.5817 74.4395 79.5033 74.4991C79.1013 74.8267 78.7091 75.1642 78.2974 75.4719C77.1306 76.3554 75.7972 76.7624 74.3658 76.8716C74.1109 76.8915 73.8461 76.8815 73.5912 76.8418C72.7382 76.7227 72.1304 76.2661 71.7872 75.462C71.6107 75.0451 71.5225 74.5984 71.4833 74.1517C71.4735 74.0524 71.4637 73.963 71.4441 73.834C71.2284 73.8836 71.1303 74.0325 71.0029 74.1417C70.3558 74.7076 69.7087 75.2833 69.0518 75.8492C68.6596 76.1867 68.2086 76.4547 67.7478 76.683C66.6203 77.229 65.4339 77.4275 64.1888 77.2786C63.8064 77.229 63.4436 77.1396 63.1103 76.9411C62.5122 76.5937 62.1887 76.0775 62.1593 75.3727C62.1397 74.8763 62.2573 74.4098 62.4436 73.9531C62.9926 72.5534 63.728 71.2629 64.6888 70.1015C65.9536 68.5727 67.4831 67.3815 69.1694 66.3888C69.6008 66.1406 70.042 65.9024 70.493 65.684C71.4343 65.2274 72.4147 65.0785 73.454 65.2373C74.1403 65.3465 74.6305 65.7138 74.8952 66.359C75.0129 66.6469 75.0913 66.9547 75.1501 67.2624C75.2482 67.8381 74.7874 68.3841 74.2187 68.404C73.8461 68.4139 73.503 68.3444 73.2775 67.987C73.2088 67.8679 73.101 67.7786 72.9932 67.6793C72.6794 67.3914 72.3265 67.2822 71.9049 67.4411C71.5127 67.58 71.1401 67.7488 70.7872 67.9771C68.3655 69.4761 66.6007 71.5508 65.4535 74.1715C65.3947 74.3105 65.3359 74.4594 65.3065 74.6182C65.2673 74.8664 65.3849 75.0054 65.6398 75.0451C65.8653 75.0749 66.081 75.0153 66.2967 74.9359C66.6497 74.7969 66.9732 74.5984 67.2674 74.3601C67.6792 74.0226 68.0909 73.6851 68.4831 73.3178C69.3851 72.4839 70.2773 71.6401 71.1695 70.7964C71.3558 70.6177 71.5323 70.4291 71.7186 70.2504C72.0715 69.9029 72.5029 69.6945 72.9833 69.5853C73.3069 69.5158 73.6304 69.5257 73.9442 69.6448C74.3266 69.7838 74.5423 70.0518 74.5717 70.4588C74.5815 70.6772 74.5619 70.9056 74.5226 71.1339C74.4736 71.392 74.3854 71.6401 74.3266 71.8883C74.2089 72.3946 74.0814 72.9009 74.003 73.4171C73.954 73.7049 73.954 74.0028 73.9736 74.3006C74.003 74.7373 74.2187 74.9756 74.6403 75.0451C74.856 75.0848 75.0913 75.0649 75.307 75.0351C75.807 74.9557 76.258 74.7572 76.6992 74.4991C77.2091 74.2013 77.6601 73.834 78.0817 73.4171C78.4738 73.02 78.8366 72.613 79.2288 72.2258C79.4445 72.0074 79.5621 71.7593 79.6308 71.4615C79.9543 70.0419 80.6014 68.7911 81.5622 67.7091C82.7682 66.369 84.1898 65.3663 85.9546 64.9296C87.0527 64.6516 88.1606 64.6218 89.2587 64.9693C89.6705 65.0983 90.0038 65.3266 90.2097 65.7138C90.4156 66.091 90.3568 66.359 90.0038 66.6171C89.7391 66.8157 89.445 66.8752 89.1312 66.776C88.9842 66.7263 88.8469 66.6668 88.6999 66.6072C87.8469 66.2697 87.0135 66.3094 86.2193 66.7859C85.9546 66.9447 85.6997 67.1234 85.4546 67.3219C84.4741 68.1062 83.68 69.0691 82.9937 70.1213C82.5525 70.7964 82.2387 71.521 82.0721 72.3152C81.925 73.0498 82.1309 73.6553 82.6603 74.1616C82.9152 74.3998 83.1996 74.5884 83.5231 74.7175C84.4741 75.1046 85.4448 75.194 86.4546 74.9657C89.0822 74.3899 91.5235 73.3575 93.7785 71.8685C94.004 71.7196 94.2394 71.5607 94.4747 71.4218C94.7198 71.2729 94.8963 71.0743 95.0335 70.8261C95.563 69.9029 96.1904 69.0592 96.9454 68.3047C97.1513 68.0962 97.3768 67.9076 97.6023 67.719C98.0631 67.3517 98.5729 67.1532 99.1612 67.1135C99.4945 67.0936 99.8181 67.1036 100.112 67.2525C100.426 67.4113 100.71 67.3617 101.004 67.2227C101.024 67.2127 101.034 67.2128 101.053 67.2028C101.926 66.6668 102.897 66.6469 103.857 66.7462C105.22 66.8852 106.132 67.8977 106.338 69.1088C106.505 70.1015 106.318 71.0545 105.887 71.9479C105.367 73.0101 104.73 74.0027 103.936 74.8862C103.485 75.3925 102.985 75.8491 102.426 76.2264C101.23 77.0305 99.9259 77.4375 98.4847 77.3481C97.7591 77.3084 97.0434 77.2488 96.3571 77.0106C96.014 76.8915 95.6806 76.7525 95.3669 76.5738C94.6315 76.137 94.1903 75.4719 94.0433 74.6182C94.0237 74.4792 93.9942 74.3403 93.9648 74.2112C93.9648 74.1219 93.9452 74.1119 93.8962 74.0524ZM96.7787 74.0524C96.8081 74.3105 96.8081 74.4991 96.8473 74.6877C96.9552 75.2535 97.2787 75.5315 97.8376 75.5613C98.22 75.5811 98.5925 75.5017 98.9455 75.3727C99.622 75.1443 100.23 74.7969 100.789 74.3601C101.818 73.5461 102.622 72.5435 103.24 71.382C103.446 70.9949 103.603 70.5879 103.681 70.161C103.73 69.9228 103.75 69.6746 103.74 69.4364C103.72 69.0393 103.505 68.7514 103.161 68.5827C102.906 68.4536 102.642 68.4139 102.367 68.4139C101.426 68.4139 100.563 68.672 99.8083 69.218C98.4553 70.1908 97.4944 71.4714 96.9846 73.0895C96.8768 73.427 96.8375 73.7744 96.7787 74.0524Z" fill="#141313"/>
<path d="M112.636 64.9951C112.796 64.8457 112.896 64.7561 112.996 64.6665C113.918 63.8499 115.029 63.4416 116.231 63.2823C116.772 63.2126 117.313 63.3321 117.814 63.581C118.324 63.84 118.665 64.2383 118.885 64.7561C119.075 65.2141 119.146 65.6921 119.196 66.1801C119.356 67.7534 119.146 69.277 118.595 70.7607C117.814 72.8717 116.652 74.7438 114.989 76.2873C113.888 77.313 112.536 77.7511 111.043 77.7312C110.172 77.7212 109.401 77.4125 108.72 76.8649C108.48 76.6657 108.259 76.4367 108.029 76.2276C107.939 76.1479 107.859 76.0583 107.789 75.9886C107.598 75.9686 107.498 76.0682 107.398 76.1678C107.198 76.367 107.007 76.5761 106.807 76.7653C106.637 76.9246 106.457 77.0541 106.206 77.0541C105.736 77.0541 105.345 76.6856 105.305 76.1977C105.285 75.9487 105.365 75.7197 105.455 75.4907C105.946 74.1862 106.437 72.8717 106.947 71.5772C108.339 68.0322 109.892 64.5569 111.484 61.1015C112.726 58.4229 113.988 55.7542 115.22 53.0755C116.452 50.4167 117.663 47.7381 118.875 45.0693C119.045 44.6909 119.236 44.3125 119.396 43.9242C119.516 43.6454 119.706 43.4562 119.997 43.3765C120.337 43.2869 120.678 43.2172 121.018 43.1475C121.048 43.1375 121.089 43.1475 121.119 43.1475C121.709 43.1475 121.85 43.3168 121.699 43.8744C121.529 44.5117 121.279 45.1291 121.018 45.7465C120.127 47.8675 119.246 49.9985 118.354 52.1295C117.163 54.9575 115.981 57.7955 114.649 60.5638C114.028 61.8484 113.417 63.1529 112.806 64.4474C112.746 64.5868 112.646 64.7362 112.636 64.9951ZM109.461 72.7821C109.481 73.041 109.491 73.2999 109.521 73.5688C109.541 73.7779 109.591 73.987 109.641 74.1862C109.742 74.5845 109.902 74.943 110.182 75.2517C110.663 75.7795 111.214 75.8691 111.835 75.5205C112.125 75.3513 112.375 75.1322 112.596 74.8832C113.717 73.6684 114.659 72.334 115.4 70.8503C116.001 69.6354 116.422 68.3708 116.622 67.0265C116.672 66.6879 116.692 66.3294 116.652 65.9909C116.572 65.4033 116.121 65.1245 115.55 65.254C115.41 65.2838 115.28 65.3336 115.15 65.3934C114.839 65.5527 114.519 65.6921 114.218 65.8813C112.536 66.9568 111.214 68.3907 110.202 70.0935C109.711 70.91 109.471 71.8162 109.461 72.7821Z" fill="#141313"/>
<path d="M141.491 76.608C140.704 76.5678 140.035 76.5176 139.385 76.3267C139.051 76.2262 138.726 76.1156 138.421 75.9649C137.004 75.2716 136.649 73.9652 136.767 72.8498C136.846 72.0862 137.072 71.3727 137.407 70.6894C138.007 69.4735 138.775 68.3682 139.73 67.4136C139.917 67.2327 140.114 67.0619 140.31 66.891C140.832 66.4489 141.442 66.2479 142.121 66.2178C142.387 66.2077 142.643 66.258 142.869 66.3685C143.194 66.5393 143.499 66.479 143.804 66.3283C143.893 66.2781 143.991 66.2278 144.08 66.1876C144.493 65.9967 144.916 65.856 145.369 65.846C145.763 65.8359 146.166 65.8158 146.56 65.846C147.79 65.9565 148.922 66.8709 149.129 68.338C149.267 69.2726 149.109 70.1669 148.706 71.011C148.086 72.3173 147.298 73.5131 146.275 74.538C145.3 75.5027 144.178 76.196 142.84 76.4774C142.377 76.5779 141.875 76.6382 141.491 76.608ZM140.802 74.8596C140.94 74.8395 141.147 74.8194 141.344 74.7691C142.131 74.5782 142.83 74.2064 143.47 73.714C144.582 72.8699 145.428 71.7947 146.068 70.5487C146.284 70.1267 146.442 69.6745 146.511 69.2022C146.54 69.0314 146.55 68.8505 146.54 68.6797C146.501 68.2375 146.284 67.916 145.871 67.7653C145.645 67.6849 145.399 67.6447 145.162 67.6346C144.129 67.6145 143.194 67.9361 142.377 68.5792C141.304 69.4233 140.478 70.4583 139.956 71.7445C139.779 72.1866 139.641 72.6388 139.572 73.1111C139.523 73.4528 139.553 73.7743 139.641 74.1059C139.759 74.538 140.045 74.7892 140.488 74.8495C140.566 74.8495 140.655 74.8495 140.802 74.8596Z" fill="#141313"/>
</svg>
