<svg width="1006" height="88" viewBox="0 0 1006 88" fill="none" xmlns="http://www.w3.org/2000/svg">
<path d="M78.9645 48.5425C82.9089 48.5425 85.5279 46.7124 85.5279 43.5569C85.5279 40.3901 82.9255 39.399 80.4273 38.6537L80.1396 38.5687C77.9402 37.9235 75.9037 37.4126 75.9037 35.6998C75.9037 34.343 77.0082 33.491 78.933 33.491C80.6054 33.491 81.8045 34.1852 82.3409 35.6683L84.8968 34.6585C84.1711 32.4497 81.9938 31.2191 78.9645 31.2191C75.3042 31.2191 72.9376 32.9861 72.9376 35.8576C72.9376 41.569 82.4987 39.7704 82.4987 43.7778C82.4987 45.324 81.1418 46.2075 79.0592 46.2075C76.7557 46.2075 75.2095 45.1978 74.6731 43.4938L72.1172 44.5036C73.0007 47.1541 75.5251 48.5425 78.9645 48.5425ZM103.535 53.8437V31.5662H101.042V34.6585C99.717 32.5128 97.5081 31.2191 94.7313 31.2191C89.9981 31.2191 86.6218 34.9425 86.6218 39.8966C86.6218 44.8507 90.0928 48.5425 94.7944 48.5425C97.4135 48.5425 99.5276 47.375 100.853 45.4502V53.8437H103.535ZM95.11 46.1759C91.7652 46.1759 89.2724 43.4938 89.2724 39.8966C89.2724 36.2678 91.7652 33.5857 95.11 33.5857C98.5494 33.5857 100.948 36.2047 100.948 39.8966C100.948 43.5885 98.581 46.1759 95.11 46.1759ZM113.37 48.5425C115.831 48.5425 117.819 47.375 118.923 45.8288V48.1954H121.479V31.5662H118.797V42.0107C118.765 44.1249 116.872 46.1444 114.064 46.1444C111.224 46.1759 109.425 44.3142 109.425 41.5059V31.5662H106.743V41.8214C106.743 45.7657 109.11 48.5425 113.37 48.5425ZM132.039 48.5425C134.848 48.5425 137.025 47.2173 138.287 45.0084V48.1954H140.78V31.5662H138.287V34.7847C137.025 32.639 134.848 31.3768 132.039 31.3768C127.338 31.3768 123.867 34.9425 123.867 39.865C123.867 44.8507 127.306 48.5425 132.039 48.5425ZM132.355 46.1759C129.01 46.1759 126.517 43.4938 126.517 39.865C126.517 36.2993 129.01 33.5857 132.355 33.5857C135.826 33.5857 138.193 36.1731 138.193 39.865C138.193 43.5885 135.794 46.1759 132.355 46.1759ZM146.891 48.1954V38.1611C146.891 35.7945 149.005 33.7434 152.035 33.7119V31.2191C149.699 31.2191 147.806 32.4497 146.733 33.9959V31.5662H144.209V48.1954H146.891ZM160.386 48.5741C164.33 48.5741 166.634 46.8701 167.864 44.5036L165.529 43.0836C164.709 45.0084 163.194 46.0497 160.481 46.0497C157.42 46.0497 154.99 43.9671 154.517 40.8748H168.338C168.369 40.5592 168.401 39.9912 168.401 39.5179C168.401 35.1318 165.214 31.1875 160.197 31.1875C155.495 31.1875 151.803 35.0687 151.803 39.8966C151.803 44.8507 155.274 48.5741 160.386 48.5741ZM165.656 38.5397H154.548C155.053 35.3843 157.483 33.5225 160.291 33.5225C163.068 33.5225 165.245 35.4158 165.656 38.5397Z" fill="white"/>
<path d="M110.689 58.3515C110.776 58.3515 110.867 58.3459 110.963 58.3348C111.059 58.3238 111.164 58.3071 111.277 58.2849V57.9965H111.211C110.898 57.9965 110.674 57.9589 110.541 57.8837C110.408 57.8085 110.303 57.6674 110.227 57.4603C110.193 57.374 110.146 57.1996 110.087 56.9371C110.027 56.6745 109.956 56.4755 109.872 56.3399C109.798 56.2166 109.697 56.1137 109.569 56.0311C109.441 55.9485 109.282 55.8814 109.092 55.8296C109.499 55.7408 109.804 55.5911 110.009 55.3803C110.213 55.1695 110.316 54.9002 110.316 54.5723C110.316 54.1113 110.167 53.7693 109.868 53.5462C109.57 53.3231 109.112 53.2115 108.493 53.2115H106.562V53.5148L106.991 53.5591L107.121 53.6664V57.8375L106.991 57.9447L106.562 57.9817V58.2923H108.363V57.9817L107.931 57.9447L107.801 57.8375V56.0367L107.827 56.033C107.99 56.0256 108.108 56.0219 108.182 56.0219C108.53 56.0219 108.789 56.081 108.961 56.1994C109.132 56.3177 109.268 56.5309 109.369 56.8391C109.396 56.9204 109.432 57.0437 109.476 57.2089C109.595 57.6674 109.744 57.9755 109.924 58.1333C110.01 58.2073 110.115 58.2621 110.24 58.2979C110.364 58.3336 110.514 58.3515 110.689 58.3515ZM108.219 55.678C108.155 55.678 108.088 55.6774 108.019 55.6761C107.95 55.6749 107.878 55.673 107.801 55.6706V53.5591H108.167C108.658 53.5591 109.013 53.6442 109.232 53.8143C109.452 53.9844 109.561 54.258 109.561 54.6352C109.561 55 109.455 55.2651 109.242 55.4302C109.028 55.5954 108.688 55.678 108.219 55.678ZM112.648 58.3589C112.892 58.3589 113.135 58.3207 113.377 58.2443C113.618 58.1678 113.851 58.0557 114.075 57.9078V57.4899C113.849 57.6403 113.638 57.7512 113.445 57.8227C113.251 57.8942 113.065 57.9299 112.885 57.9299C112.495 57.9299 112.186 57.7913 111.957 57.5139C111.727 57.2366 111.613 56.86 111.613 56.3843V56.2992H114.064C114.069 56.2696 114.072 56.2388 114.074 56.2068C114.075 56.1747 114.075 56.1279 114.075 56.0662C114.075 55.6052 113.953 55.241 113.708 54.9735C113.462 54.7061 113.13 54.5723 112.711 54.5723C112.198 54.5723 111.779 54.7517 111.452 55.1104C111.125 55.469 110.962 55.9319 110.962 56.4989C110.962 57.0511 111.118 57.4991 111.43 57.843C111.742 58.1869 112.148 58.3589 112.648 58.3589ZM113.399 55.9812H111.65C111.672 55.673 111.775 55.4185 111.958 55.2176C112.142 55.0167 112.36 54.9162 112.611 54.9162C112.868 54.9162 113.063 54.9976 113.197 55.1603C113.332 55.323 113.399 55.5572 113.399 55.8629V55.9812ZM115.435 58.3441C115.613 58.3441 115.803 58.304 116.007 58.2239C116.21 58.1438 116.434 58.0199 116.678 57.8523L116.778 58.2923H117.843V58.0187L117.443 57.9817L117.314 57.8597V55.6632C117.314 55.2811 117.224 55.0037 117.044 54.8312C116.864 54.6586 116.575 54.5723 116.179 54.5723C115.727 54.5723 115.359 54.6537 115.075 54.8164C114.79 54.9791 114.648 55.1837 114.648 55.4302C114.648 55.519 114.664 55.58 114.698 55.6133C114.731 55.6465 114.793 55.6632 114.884 55.6632H115.406V55.0272C115.507 54.9877 115.604 54.9581 115.698 54.9384C115.791 54.9187 115.886 54.9088 115.983 54.9088C116.239 54.9088 116.419 54.9705 116.522 55.0937C116.626 55.217 116.678 55.4376 116.678 55.7556V55.996C115.734 56.2228 115.129 56.4286 114.864 56.6135C114.599 56.7984 114.466 57.0523 114.466 57.3753C114.466 57.6662 114.555 57.9004 114.731 58.0778C114.907 58.2553 115.142 58.3441 115.435 58.3441ZM115.738 57.9373C115.554 57.9373 115.406 57.8812 115.297 57.7691C115.187 57.6569 115.132 57.5059 115.132 57.3161C115.132 57.0794 115.231 56.8884 115.43 56.7429C115.628 56.5975 116.044 56.4373 116.678 56.2622V57.5971C116.478 57.7105 116.301 57.7956 116.147 57.8523C115.993 57.909 115.857 57.9373 115.738 57.9373ZM119.72 58.2923V58.0187L119.287 57.9817L119.151 57.8597V52.7197H118.862L117.938 52.9897V53.2263H118.522V57.8597L118.393 57.9817L117.945 58.0187V58.2923H119.72ZM125.62 58.2923V57.0573H125.228L125.098 57.8227L124.991 57.9447H122.961V55.8222H124.204L124.311 55.9368L124.385 56.4841H124.743V54.8164H124.385L124.311 55.3674L124.204 55.4746H122.961V53.5591H124.714L124.817 53.6738L124.925 54.3172H125.35V53.2115H121.722V53.5148L122.151 53.5591L122.281 53.6664V57.8375L122.151 57.9447L121.722 57.9817V58.2923H125.62ZM126.883 58.3589C127.327 58.3589 127.674 58.2584 127.924 58.0575C128.175 57.8566 128.3 57.5786 128.3 57.2237C128.3 57.0881 128.275 56.9642 128.226 56.852C128.176 56.7399 128.105 56.6468 128.011 56.5728C127.883 56.4668 127.676 56.3485 127.39 56.2179C127.309 56.1809 127.248 56.1525 127.209 56.1328C126.957 56.012 126.787 55.9023 126.699 55.8037C126.61 55.7051 126.565 55.5855 126.565 55.445C126.565 55.2724 126.621 55.1381 126.732 55.0419C126.843 54.9458 126.997 54.8977 127.194 54.8977C127.285 54.8977 127.376 54.9113 127.468 54.9384C127.559 54.9655 127.655 55.0062 127.756 55.0604L127.815 55.5966H128.189V54.7387C128.061 54.6845 127.923 54.6432 127.776 54.6149C127.63 54.5865 127.471 54.5723 127.301 54.5723C126.875 54.5723 126.544 54.6648 126.31 54.8497C126.076 55.0346 125.959 55.2959 125.959 55.6336C125.959 55.8555 126.027 56.0416 126.164 56.192C126.301 56.3423 126.559 56.5026 126.939 56.6727C127.274 56.8255 127.486 56.9519 127.575 57.0517C127.664 57.1515 127.708 57.2779 127.708 57.4307C127.708 57.6132 127.643 57.7605 127.514 57.8726C127.384 57.9848 127.213 58.0409 126.998 58.0409C126.89 58.0409 126.782 58.0261 126.675 57.9965C126.567 57.9669 126.461 57.9213 126.355 57.8597L126.262 57.2163H125.9V58.1999C126.04 58.2541 126.194 58.2942 126.36 58.3201C126.527 58.3459 126.701 58.3589 126.883 58.3589ZM129.811 58.3145C129.966 58.3145 130.128 58.3003 130.296 58.272C130.463 58.2436 130.633 58.2023 130.806 58.1481V57.8671C130.712 57.8893 130.622 57.9053 130.534 57.9151C130.447 57.925 130.362 57.9299 130.281 57.9299C130.044 57.9299 129.88 57.8739 129.789 57.7617C129.698 57.6495 129.652 57.4295 129.652 57.1016V55.1048H130.806V54.7498H129.652V53.9437H129.371L129.046 54.65L128.546 54.8682V55.1048H129.023V57.5491C129.023 57.84 129.082 58.0403 129.199 58.15C129.316 58.2597 129.52 58.3145 129.811 58.3145ZM131.922 58.3441C132.099 58.3441 132.29 58.304 132.493 58.2239C132.696 58.1438 132.92 58.0199 133.164 57.8523L133.264 58.2923H134.329V58.0187L133.929 57.9817L133.8 57.8597V55.6632C133.8 55.2811 133.71 55.0037 133.53 54.8312C133.35 54.6586 133.062 54.5723 132.665 54.5723C132.214 54.5723 131.846 54.6537 131.561 54.8164C131.276 54.9791 131.134 55.1837 131.134 55.4302C131.134 55.519 131.151 55.58 131.184 55.6133C131.217 55.6465 131.279 55.6632 131.371 55.6632H131.892V55.0272C131.993 54.9877 132.09 54.9581 132.184 54.9384C132.278 54.9187 132.373 54.9088 132.469 54.9088C132.725 54.9088 132.905 54.9705 133.009 55.0937C133.112 55.217 133.164 55.4376 133.164 55.7556V55.996C132.22 56.2228 131.615 56.4286 131.35 56.6135C131.085 56.7984 130.953 57.0523 130.953 57.3753C130.953 57.6662 131.041 57.9004 131.217 58.0778C131.393 58.2553 131.628 58.3441 131.922 58.3441ZM132.225 57.9373C132.04 57.9373 131.893 57.8812 131.783 57.7691C131.673 57.6569 131.618 57.5059 131.618 57.3161C131.618 57.0794 131.718 56.8884 131.916 56.7429C132.114 56.5975 132.53 56.4373 133.164 56.2622V57.5971C132.964 57.7105 132.787 57.7956 132.633 57.8523C132.479 57.909 132.343 57.9373 132.225 57.9373ZM135.674 58.3145C135.829 58.3145 135.991 58.3003 136.158 58.272C136.326 58.2436 136.496 58.2023 136.669 58.1481V57.8671C136.575 57.8893 136.484 57.9053 136.397 57.9151C136.309 57.925 136.225 57.9299 136.143 57.9299C135.907 57.9299 135.743 57.8739 135.652 57.7617C135.56 57.6495 135.515 57.4295 135.515 57.1016V55.1048H136.669V54.7498H135.515V53.9437H135.234L134.908 54.65L134.409 54.8682V55.1048H134.886V57.5491C134.886 57.84 134.945 58.0403 135.062 58.15C135.179 58.2597 135.383 58.3145 135.674 58.3145ZM138.465 58.3589C138.709 58.3589 138.952 58.3207 139.193 58.2443C139.435 58.1678 139.668 58.0557 139.892 57.9078V57.4899C139.665 57.6403 139.455 57.7512 139.262 57.8227C139.068 57.8942 138.881 57.9299 138.701 57.9299C138.312 57.9299 138.002 57.7913 137.773 57.5139C137.544 57.2366 137.429 56.86 137.429 56.3843V56.2992H139.881C139.886 56.2696 139.889 56.2388 139.89 56.2068C139.891 56.1747 139.892 56.1279 139.892 56.0662C139.892 55.6052 139.769 55.241 139.524 54.9735C139.279 54.7061 138.947 54.5723 138.528 54.5723C138.015 54.5723 137.595 54.7517 137.268 55.1104C136.942 55.469 136.779 55.9319 136.779 56.4989C136.779 57.0511 136.934 57.4991 137.246 57.843C137.558 58.1869 137.964 58.3589 138.465 58.3589ZM139.215 55.9812H137.466C137.488 55.673 137.591 55.4185 137.775 55.2176C137.959 55.0167 138.176 54.9162 138.428 54.9162C138.684 54.9162 138.879 54.9976 139.014 55.1603C139.148 55.323 139.215 55.5572 139.215 55.8629V55.9812ZM143.636 58.3848C144.228 58.3848 144.702 58.2449 145.06 57.9651C145.417 57.6853 145.596 57.3173 145.596 56.8613C145.596 56.6961 145.568 56.5433 145.513 56.4027C145.457 56.2622 145.374 56.1377 145.263 56.0293C145.068 55.837 144.75 55.6546 144.309 55.482C144.225 55.4499 144.162 55.4253 144.12 55.408C143.672 55.2182 143.383 55.0561 143.253 54.9218C143.124 54.7874 143.059 54.6179 143.059 54.4133C143.059 54.1323 143.152 53.9098 143.336 53.7459C143.521 53.5819 143.772 53.5 144.087 53.5C144.22 53.5 144.343 53.5129 144.457 53.5388C144.57 53.5647 144.675 53.6047 144.771 53.659L144.882 53.7847L144.997 54.5058H145.392V53.3336C145.171 53.2621 144.953 53.2085 144.74 53.1727C144.527 53.137 144.314 53.1191 144.102 53.1191C143.574 53.1191 143.151 53.2528 142.832 53.5203C142.512 53.7878 142.353 54.1385 142.353 54.5723C142.353 54.8805 142.437 55.1313 142.604 55.3248C142.772 55.5184 143.115 55.7273 143.632 55.9516C143.674 55.9689 143.735 55.9948 143.813 56.0293C144.538 56.3374 144.901 56.685 144.901 57.072C144.901 57.3506 144.798 57.5719 144.592 57.7358C144.386 57.8997 144.107 57.9817 143.754 57.9817C143.587 57.9817 143.431 57.9669 143.288 57.9373C143.145 57.9078 143.018 57.8646 142.908 57.8079L142.808 57.6785L142.719 56.8095H142.271V58.1407C142.451 58.2196 142.658 58.28 142.891 58.3219C143.124 58.3638 143.372 58.3848 143.636 58.3848ZM147.814 58.3589C148.326 58.3589 148.748 58.182 149.08 57.8282C149.412 57.4745 149.577 57.0203 149.577 56.4656C149.577 55.9109 149.412 55.4567 149.082 55.103C148.752 54.7492 148.329 54.5723 147.814 54.5723C147.296 54.5723 146.874 54.7486 146.547 55.1011C146.22 55.4536 146.057 55.9085 146.057 56.4656C146.057 57.0227 146.222 57.4776 146.551 57.8301C146.88 58.1826 147.301 58.3589 147.814 58.3589ZM147.814 58.0335C147.5 58.0335 147.248 57.8911 147.055 57.6064C146.863 57.3216 146.767 56.9414 146.767 56.4656C146.767 55.9898 146.863 55.6096 147.054 55.3248C147.245 55.0401 147.498 54.8977 147.814 54.8977C148.129 54.8977 148.384 55.0407 148.577 55.3267C148.771 55.6126 148.867 55.9923 148.867 56.4656C148.867 56.9439 148.771 57.3247 148.579 57.6082C148.387 57.8917 148.132 58.0335 147.814 58.0335ZM151.592 58.2923V58.0187L151.159 57.9817L151.022 57.8597V52.7197H150.734L149.809 52.9897V53.2263H150.394V57.8597L150.264 57.9817L149.817 58.0187V58.2923H151.592ZM153.24 58.3663C153.42 58.3663 153.61 58.3256 153.811 58.2443C154.012 58.1629 154.231 58.0372 154.468 57.8671V58.2923H155.588V58.0187L155.233 57.9817L155.096 57.8597V54.5723H154.808L153.928 54.8534V55.09H154.468V57.6563C154.31 57.7327 154.159 57.7894 154.015 57.8264C153.87 57.8634 153.728 57.8819 153.588 57.8819C153.336 57.8819 153.151 57.8172 153.033 57.6877C152.915 57.5583 152.855 57.3555 152.855 57.0794V54.5723H152.567L151.687 54.8534V55.09H152.227V57.2089C152.227 57.5836 152.314 57.8702 152.487 58.0686C152.661 58.2671 152.912 58.3663 153.24 58.3663ZM157 58.3145C157.155 58.3145 157.316 58.3003 157.484 58.272C157.652 58.2436 157.822 58.2023 157.994 58.1481V57.8671C157.901 57.8893 157.81 57.9053 157.723 57.9151C157.635 57.925 157.551 57.9299 157.469 57.9299C157.233 57.9299 157.069 57.8739 156.977 57.7617C156.886 57.6495 156.841 57.4295 156.841 57.1016V55.1048H157.994V54.7498H156.841V53.9437H156.56L156.234 54.65L155.735 54.8682V55.1048H156.212V57.5491C156.212 57.84 156.271 58.0403 156.388 58.15C156.505 58.2597 156.709 58.3145 157 58.3145ZM158.988 53.8032C159.111 53.8032 159.215 53.7613 159.301 53.6775C159.386 53.5936 159.428 53.4913 159.428 53.3705C159.428 53.2497 159.386 53.1462 159.301 53.0599C159.215 52.9736 159.111 52.9305 158.988 52.9305C158.867 52.9305 158.764 52.973 158.679 53.0581C158.594 53.1431 158.552 53.2473 158.552 53.3705C158.552 53.4913 158.594 53.5936 158.679 53.6775C158.764 53.7613 158.867 53.8032 158.988 53.8032ZM159.79 58.2923V58.0187L159.384 57.9817L159.254 57.8597V54.613H158.958L158.089 54.8829V55.1196H158.618V57.8597L158.489 57.9817L158.089 58.0187V58.2923H159.79ZM161.727 58.3589C162.24 58.3589 162.662 58.182 162.994 57.8282C163.325 57.4745 163.491 57.0203 163.491 56.4656C163.491 55.9109 163.326 55.4567 162.995 55.103C162.665 54.7492 162.242 54.5723 161.727 54.5723C161.209 54.5723 160.787 54.7486 160.461 55.1011C160.134 55.4536 159.971 55.9085 159.971 56.4656C159.971 57.0227 160.135 57.4776 160.464 57.8301C160.793 58.1826 161.214 58.3589 161.727 58.3589ZM161.727 58.0335C161.414 58.0335 161.161 57.8911 160.969 57.6064C160.777 57.3216 160.681 56.9414 160.681 56.4656C160.681 55.9898 160.776 55.6096 160.967 55.3248C161.158 55.0401 161.412 54.8977 161.727 54.8977C162.043 54.8977 162.297 55.0407 162.491 55.3267C162.684 55.6126 162.781 55.9923 162.781 56.4656C162.781 56.9439 162.685 57.3247 162.493 57.6082C162.3 57.8917 162.045 58.0335 161.727 58.0335ZM165.405 58.2923V58.0187L165.043 57.9817L164.914 57.8597V55.323C165.076 55.2392 165.228 55.1769 165.368 55.1362C165.509 55.0956 165.64 55.0752 165.76 55.0752C166.037 55.0752 166.233 55.1344 166.35 55.2527C166.467 55.3711 166.526 55.572 166.526 55.8555V57.8597L166.396 57.9817L166.034 58.0187V58.2923H167.691V58.0187L167.284 57.9817L167.155 57.8597V55.726C167.155 55.3513 167.067 55.0654 166.892 54.8682C166.717 54.6709 166.464 54.5723 166.134 54.5723C165.993 54.5723 165.831 54.6062 165.646 54.674C165.461 54.7418 165.217 54.8595 164.914 55.0272V54.613H164.625L163.745 54.8829V55.1196H164.285V57.8597L164.156 57.9817L163.745 58.0187V58.2923H165.405Z" fill="white"/>
<path fill-rule="evenodd" clip-rule="evenodd" d="M31 28H62.5546V59.5546H31V28ZM54.485 36.0693L39.068 36.0676V51.4862L39.0628 51.4909L39.063 51.492H54.492L54.4908 36.0638L54.4901 36.0637L54.485 36.0693Z" fill="white"/>
<path d="M347.738 49.7811V40.2876H349.932C351.578 40.2876 352.981 39.6988 354.14 38.5214C355.3 37.3439 355.879 35.9272 355.879 34.2714V30.6147C355.879 28.8945 355.369 27.4778 354.347 26.3647C353.253 25.1964 351.781 24.6123 349.932 24.6123H343.957V49.7811H347.738ZM350.028 36.5344H347.738V28.4897H350.028C350.691 28.4897 351.217 28.6898 351.608 29.09C351.999 29.4901 352.195 30.0214 352.195 30.6837V34.3542C352.195 34.9521 351.986 35.465 351.567 35.8927C351.148 36.3205 350.636 36.5344 350.028 36.5344ZM361.906 49.7811L362.831 43.9994H366.791L367.688 49.7811H371.662L367.453 24.6123H362.224L357.96 49.7811H361.906ZM366.225 40.3014H363.41L364.818 30.3801L366.225 40.3014ZM380.131 49.7811V40.2876H382.325C383.972 40.2876 385.375 39.6988 386.534 38.5214C387.693 37.3439 388.273 35.9272 388.273 34.2714V30.6147C388.273 28.8945 387.762 27.4778 386.741 26.3647C385.646 25.1964 384.174 24.6123 382.325 24.6123H376.35V49.7811H380.131ZM382.422 36.5344H380.131V28.4897H382.422C383.084 28.4897 383.611 28.6898 384.002 29.09C384.393 29.4901 384.588 30.0214 384.588 30.6837V34.3542C384.588 34.9521 384.379 35.465 383.96 35.8927C383.542 36.3205 383.029 36.5344 382.422 36.5344ZM403.586 49.7811V45.9864H396.576V39.1009H401.696V35.2925H396.576V28.4069H403.586V24.6123H392.796V49.7811H403.586ZM411.476 49.7811V40.2876H413.656C413.776 40.2876 413.891 40.283 414.001 40.2738L416.319 49.7811H420.418L417.603 38.7835C418.955 37.5601 419.631 36.056 419.631 34.2714V30.6147C419.631 28.8025 419.194 27.3858 418.32 26.3647C417.336 25.1964 415.786 24.6123 413.67 24.6123H407.695V49.7811H411.476ZM413.767 36.5344H411.476V28.4897H413.767C415.211 28.4897 415.933 29.2211 415.933 30.6837V34.3542C415.933 34.9521 415.724 35.465 415.305 35.8927C414.887 36.3205 414.374 36.5344 413.767 36.5344ZM436.007 49.7811V46.014H429.025L436.007 28.4069V24.6123H424.941V28.4069H431.937L424.941 46.014V49.7811H436.007Z" fill="white"/>
<path d="M346.759 62.6713V62.118H344.019V56.585H343.35V62.6713H346.759ZM349.284 62.8141C349.724 62.8141 350.105 62.7263 350.426 62.5508C350.748 62.3753 351.006 62.1329 351.203 61.8235L350.721 61.5022C350.578 61.7402 350.389 61.9261 350.154 62.06C349.919 62.1938 349.623 62.2608 349.266 62.2608C348.826 62.2608 348.478 62.1091 348.222 61.8056C347.966 61.5022 347.827 61.1363 347.803 60.708H351.239C351.244 60.6485 351.247 60.5622 351.247 60.4492C351.247 60.0565 351.161 59.701 350.989 59.3828C350.816 59.0645 350.578 58.8131 350.275 58.6287C349.971 58.4442 349.632 58.352 349.257 58.352C348.859 58.352 348.503 58.4472 348.191 58.6376C347.879 58.828 347.635 59.0927 347.459 59.4318C347.284 59.771 347.196 60.1547 347.196 60.583C347.196 61.0114 347.285 61.3951 347.464 61.7343C347.642 62.0734 347.889 62.3381 348.204 62.5285C348.52 62.7189 348.88 62.8141 349.284 62.8141ZM350.641 60.2082H347.838C347.904 59.8334 348.06 59.5226 348.307 59.2757C348.554 59.0288 348.871 58.9053 349.257 58.9053C349.656 58.9053 349.971 59.0139 350.203 59.231C350.435 59.4482 350.581 59.7739 350.641 60.2082ZM353.96 62.8141C354.258 62.8141 354.532 62.7471 354.781 62.6133C355.031 62.4794 355.242 62.2935 355.415 62.0555V62.6713H356.022V58.4948H355.415V59.1195C355.242 58.8756 355.03 58.6867 354.777 58.5528C354.524 58.4189 354.246 58.352 353.943 58.352C353.544 58.352 353.188 58.4472 352.876 58.6376C352.564 58.828 352.32 59.0912 352.144 59.4274C351.969 59.7635 351.881 60.1458 351.881 60.5741C351.881 61.0084 351.97 61.3951 352.149 61.7343C352.327 62.0734 352.574 62.3381 352.889 62.5285C353.205 62.7189 353.562 62.8141 353.96 62.8141ZM353.943 62.2608C353.663 62.2608 353.413 62.1894 353.193 62.0466C352.973 61.9038 352.8 61.7045 352.675 61.4487C352.55 61.1929 352.488 60.9013 352.488 60.5741C352.488 60.2529 352.55 59.9658 352.675 59.7129C352.8 59.4601 352.973 59.2623 353.193 59.1195C353.413 58.9767 353.663 58.9053 353.943 58.9053C354.228 58.9053 354.482 58.9767 354.706 59.1195C354.929 59.2623 355.103 59.4616 355.228 59.7174C355.353 59.9732 355.415 60.2618 355.415 60.583C355.415 60.9043 355.353 61.1929 355.228 61.4487C355.103 61.7045 354.929 61.9038 354.706 62.0466C354.482 62.1894 354.228 62.2608 353.943 62.2608ZM358.967 62.8141C359.264 62.8141 359.538 62.7471 359.788 62.6133C360.038 62.4794 360.249 62.2935 360.421 62.0555V62.6713H361.028V56.1924H360.421V59.1195C360.249 58.8756 360.036 58.6867 359.783 58.5528C359.531 58.4189 359.252 58.352 358.949 58.352C358.55 58.352 358.195 58.4472 357.883 58.6376C357.57 58.828 357.326 59.0912 357.151 59.4274C356.975 59.7635 356.887 60.1458 356.887 60.5741C356.887 61.0084 356.977 61.3951 357.155 61.7343C357.334 62.0734 357.581 62.3381 357.896 62.5285C358.211 62.7189 358.568 62.8141 358.967 62.8141ZM358.949 62.2608C358.669 62.2608 358.419 62.1894 358.199 62.0466C357.979 61.9038 357.807 61.7045 357.682 61.4487C357.557 61.1929 357.494 60.9013 357.494 60.5741C357.494 60.2529 357.557 59.9658 357.682 59.7129C357.807 59.4601 357.979 59.2623 358.199 59.1195C358.419 58.9767 358.669 58.9053 358.949 58.9053C359.235 58.9053 359.489 58.9767 359.712 59.1195C359.935 59.2623 360.109 59.4616 360.234 59.7174C360.359 59.9732 360.421 60.2618 360.421 60.583C360.421 60.9043 360.359 61.1929 360.234 61.4487C360.109 61.7045 359.935 61.9038 359.712 62.0466C359.489 62.1894 359.235 62.2608 358.949 62.2608ZM362.786 57.6827C362.917 57.6827 363.03 57.6351 363.125 57.5399C363.221 57.4447 363.268 57.3317 363.268 57.2008C363.268 57.064 363.221 56.9494 363.125 56.8572C363.03 56.765 362.917 56.7189 362.786 56.7189C362.649 56.7189 362.535 56.765 362.443 56.8572C362.351 56.9494 362.304 57.061 362.304 57.1919C362.304 57.3287 362.351 57.4447 362.443 57.5399C362.535 57.6351 362.649 57.6827 362.786 57.6827ZM363.09 62.6713V58.4948H362.483V62.6713H363.09ZM365.151 62.6713V60.583C365.151 60.0714 365.258 59.6639 365.472 59.3604C365.687 59.057 366.008 58.9053 366.436 58.9053C367.174 58.9053 367.543 59.3188 367.543 60.1458V62.6713H368.15V59.878C368.15 59.5627 368.077 59.289 367.931 59.057C367.785 58.825 367.589 58.6495 367.342 58.5305C367.095 58.4115 366.826 58.352 366.534 58.352C366.225 58.352 365.953 58.4249 365.718 58.5707C365.483 58.7164 365.294 58.9232 365.151 59.1909V58.4948H364.544V62.6713H365.151ZM371.38 64.4561C371.737 64.4561 372.055 64.3728 372.335 64.2062C372.615 64.0396 372.832 63.8091 372.987 63.5146C373.141 63.2201 373.219 62.8855 373.219 62.5107V58.4948H372.612V59.1195C372.439 58.8756 372.227 58.6867 371.974 58.5528C371.721 58.4189 371.443 58.352 371.139 58.352C370.741 58.352 370.385 58.4472 370.073 58.6376C369.761 58.828 369.517 59.0912 369.341 59.4274C369.166 59.7635 369.078 60.1458 369.078 60.5741C369.078 61.0084 369.167 61.3951 369.346 61.7343C369.524 62.0734 369.771 62.3381 370.086 62.5285C370.402 62.7189 370.759 62.8141 371.157 62.8141C371.455 62.8141 371.728 62.7471 371.978 62.6133C372.228 62.4794 372.439 62.2935 372.612 62.0555V62.5107C372.612 62.9152 372.497 63.2484 372.268 63.5102C372.039 63.7719 371.743 63.9028 371.38 63.9028H369.649V64.4561H371.38ZM371.139 62.2608C370.86 62.2608 370.61 62.1894 370.39 62.0466C370.17 61.9038 369.997 61.7045 369.872 61.4487C369.747 61.1929 369.685 60.9013 369.685 60.5741C369.685 60.2529 369.747 59.9658 369.872 59.7129C369.997 59.4601 370.17 59.2623 370.39 59.1195C370.61 58.9767 370.86 58.9053 371.139 58.9053C371.425 58.9053 371.679 58.9767 371.902 59.1195C372.125 59.2623 372.299 59.4616 372.424 59.7174C372.549 59.9732 372.612 60.2618 372.612 60.583C372.612 60.9043 372.549 61.1929 372.424 61.4487C372.299 61.7045 372.125 61.9038 371.902 62.0466C371.679 62.1894 371.425 62.2608 371.139 62.2608ZM377.154 62.6713V60.3421H378.448C379.013 60.3421 379.467 60.1755 379.809 59.8423C380.151 59.5092 380.322 59.0511 380.322 58.468C380.322 57.879 380.159 57.418 379.831 57.0848C379.504 56.7516 379.067 56.585 378.52 56.585H376.485V62.6713H377.154ZM378.43 59.7888H377.154V57.1383H378.43C378.829 57.1383 379.132 57.2514 379.341 57.4775C379.549 57.7035 379.653 58.0337 379.653 58.468C379.653 58.9023 379.549 59.231 379.341 59.4541C379.132 59.6772 378.829 59.7888 378.43 59.7888ZM382.928 62.8141C383.225 62.8141 383.499 62.7471 383.749 62.6133C383.999 62.4794 384.21 62.2935 384.383 62.0555V62.6713H384.989V58.4948H384.383V59.1195C384.21 58.8756 383.997 58.6867 383.745 58.5528C383.492 58.4189 383.214 58.352 382.91 58.352C382.512 58.352 382.156 58.4472 381.844 58.6376C381.531 58.828 381.287 59.0912 381.112 59.4274C380.936 59.7635 380.849 60.1458 380.849 60.5741C380.849 61.0084 380.938 61.3951 381.116 61.7343C381.295 62.0734 381.542 62.3381 381.857 62.5285C382.172 62.7189 382.529 62.8141 382.928 62.8141ZM382.91 62.2608C382.631 62.2608 382.381 62.1894 382.161 62.0466C381.94 61.9038 381.768 61.7045 381.643 61.4487C381.518 61.1929 381.456 60.9013 381.456 60.5741C381.456 60.2529 381.518 59.9658 381.643 59.7129C381.768 59.4601 381.94 59.2623 382.161 59.1195C382.381 58.9767 382.631 58.9053 382.91 58.9053C383.196 58.9053 383.45 58.9767 383.673 59.1195C383.896 59.2623 384.07 59.4616 384.195 59.7174C384.32 59.9732 384.383 60.2618 384.383 60.583C384.383 60.9043 384.32 61.1929 384.195 61.4487C384.07 61.7045 383.896 61.9038 383.673 62.0466C383.45 62.1894 383.196 62.2608 382.91 62.2608ZM386.73 64.4561V62.0466C386.902 62.2905 387.115 62.4794 387.368 62.6133C387.621 62.7471 387.899 62.8141 388.202 62.8141C388.601 62.8141 388.956 62.7189 389.269 62.5285C389.581 62.3381 389.825 62.0749 390 61.7387C390.176 61.4026 390.264 61.0203 390.264 60.592C390.264 60.1577 390.174 59.771 389.996 59.4318C389.817 59.0927 389.571 58.828 389.255 58.6376C388.94 58.4472 388.583 58.352 388.184 58.352C387.887 58.352 387.613 58.4189 387.363 58.5528C387.113 58.6867 386.902 58.8726 386.73 59.1106V58.4948H386.123V64.4561H386.73ZM388.202 62.2608C387.917 62.2608 387.662 62.1894 387.439 62.0466C387.216 61.9038 387.042 61.7045 386.917 61.4487C386.792 61.1929 386.73 60.9043 386.73 60.583C386.73 60.2618 386.792 59.9732 386.917 59.7174C387.042 59.4616 387.216 59.2623 387.439 59.1195C387.662 58.9767 387.917 58.9053 388.202 58.9053C388.482 58.9053 388.732 58.9767 388.952 59.1195C389.172 59.2623 389.344 59.4616 389.469 59.7174C389.594 59.9732 389.657 60.2648 389.657 60.592C389.657 60.9132 389.594 61.2003 389.469 61.4531C389.344 61.706 389.172 61.9038 388.952 62.0466C388.732 62.1894 388.482 62.2608 388.202 62.2608ZM392.95 62.8141C393.39 62.8141 393.771 62.7263 394.092 62.5508C394.413 62.3753 394.672 62.1329 394.868 61.8235L394.387 61.5022C394.244 61.7402 394.055 61.9261 393.82 62.06C393.585 62.1938 393.289 62.2608 392.932 62.2608C392.492 62.2608 392.144 62.1091 391.888 61.8056C391.632 61.5022 391.492 61.1363 391.468 60.708H394.904C394.91 60.6485 394.913 60.5622 394.913 60.4492C394.913 60.0565 394.827 59.701 394.654 59.3828C394.482 59.0645 394.244 58.8131 393.94 58.6287C393.637 58.4442 393.298 58.352 392.923 58.352C392.524 58.352 392.169 58.4472 391.857 58.6376C391.544 58.828 391.3 59.0927 391.125 59.4318C390.949 59.771 390.862 60.1547 390.862 60.583C390.862 61.0114 390.951 61.3951 391.129 61.7343C391.308 62.0734 391.555 62.3381 391.87 62.5285C392.185 62.7189 392.545 62.8141 392.95 62.8141ZM394.306 60.2082H391.504C391.57 59.8334 391.726 59.5226 391.973 59.2757C392.22 59.0288 392.536 58.9053 392.923 58.9053C393.322 58.9053 393.637 59.0139 393.869 59.231C394.101 59.4482 394.247 59.7739 394.306 60.2082ZM396.412 62.6713V60.6723C396.412 60.3034 396.479 59.9836 396.613 59.7129C396.747 59.4422 396.924 59.2355 397.144 59.0927C397.364 58.9499 397.602 58.8785 397.858 58.8785C398.007 58.8785 398.144 58.9083 398.269 58.9678V58.4145C398.138 58.3728 398.001 58.352 397.858 58.352C397.549 58.352 397.271 58.4383 397.024 58.6108C396.777 58.7833 396.573 59.0243 396.412 59.3337V58.4948H395.806V62.6713H396.412ZM403.23 62.8141C403.718 62.8141 404.139 62.6921 404.493 62.4482C404.847 62.2043 405.131 61.8503 405.345 61.3862L404.783 61.0471C404.581 61.4457 404.362 61.7387 404.127 61.9261C403.892 62.1135 403.564 62.2072 403.141 62.2072C402.802 62.2072 402.505 62.1046 402.249 61.8994C401.993 61.6941 401.797 61.3981 401.66 61.0114C401.523 60.6247 401.454 60.1666 401.454 59.6371C401.454 58.828 401.605 58.1958 401.905 57.7407C402.206 57.2856 402.621 57.058 403.15 57.058C403.519 57.058 403.831 57.1339 404.087 57.2856C404.343 57.4373 404.566 57.6887 404.756 58.0397L405.292 57.7273C405.09 57.3228 404.808 57.0089 404.449 56.7858C404.089 56.5627 403.656 56.4512 403.15 56.4512C402.656 56.4512 402.229 56.5776 401.869 56.8305C401.51 57.0833 401.233 57.4492 401.04 57.9281C400.846 58.407 400.749 58.9797 400.749 59.646C400.749 60.3064 400.849 60.8731 401.048 61.3461C401.248 61.819 401.533 62.1819 401.905 62.4348C402.277 62.6876 402.719 62.8141 403.23 62.8141ZM408.04 62.8141C408.439 62.8141 408.795 62.7189 409.107 62.5285C409.419 62.3381 409.663 62.0734 409.839 61.7343C410.014 61.3951 410.102 61.0114 410.102 60.583C410.102 60.1547 410.013 59.771 409.834 59.4318C409.656 59.0927 409.409 58.828 409.094 58.6376C408.778 58.4472 408.421 58.352 408.023 58.352C407.624 58.352 407.269 58.4472 406.956 58.6376C406.644 58.828 406.4 59.0912 406.224 59.4274C406.049 59.7635 405.961 60.1458 405.961 60.5741C405.961 61.0025 406.05 61.3877 406.229 61.7298C406.407 62.0719 406.654 62.3381 406.97 62.5285C407.285 62.7189 407.642 62.8141 408.04 62.8141ZM408.023 62.2608C407.743 62.2608 407.493 62.1894 407.273 62.0466C407.053 61.9038 406.88 61.7045 406.755 61.4487C406.63 61.1929 406.568 60.9013 406.568 60.5741C406.568 60.2529 406.63 59.9658 406.755 59.7129C406.88 59.4601 407.053 59.2623 407.273 59.1195C407.493 58.9767 407.743 58.9053 408.023 58.9053C408.308 58.9053 408.563 58.9767 408.786 59.1195C409.009 59.2623 409.183 59.4616 409.308 59.7174C409.433 59.9732 409.495 60.2618 409.495 60.583C409.495 60.9043 409.433 61.1929 409.308 61.4487C409.183 61.7045 409.009 61.9038 408.786 62.0466C408.563 62.1894 408.308 62.2608 408.023 62.2608ZM411.565 62.6713V60.583C411.565 60.0714 411.656 59.6639 411.838 59.3604C412.019 59.057 412.291 58.9053 412.654 58.9053C412.922 58.9053 413.139 59.002 413.306 59.1953C413.472 59.3887 413.556 59.7055 413.556 60.1458V62.6713H414.162V60.3153C414.192 59.881 414.298 59.5374 414.479 59.2846C414.661 59.0317 414.915 58.9053 415.242 58.9053C415.51 58.9053 415.727 59.002 415.894 59.1953C416.06 59.3887 416.144 59.7055 416.144 60.1458V62.6713H416.75V59.878C416.75 59.4021 416.622 59.0288 416.367 58.7581C416.111 58.4874 415.79 58.352 415.403 58.352C415.105 58.352 414.844 58.4353 414.618 58.6019C414.391 58.7685 414.213 59.0005 414.082 59.298C413.993 58.9946 413.835 58.761 413.609 58.5974C413.383 58.4338 413.118 58.352 412.815 58.352C412.541 58.352 412.299 58.4204 412.088 58.5573C411.876 58.6941 411.702 58.8904 411.565 59.1463V58.4948H410.959V62.6713H411.565ZM418.446 64.4561V62.0466C418.619 62.2905 418.831 62.4794 419.084 62.6133C419.337 62.7471 419.615 62.8141 419.918 62.8141C420.317 62.8141 420.673 62.7189 420.985 62.5285C421.297 62.3381 421.541 62.0749 421.717 61.7387C421.892 61.4026 421.98 61.0203 421.98 60.592C421.98 60.1577 421.891 59.771 421.712 59.4318C421.534 59.0927 421.287 58.828 420.971 58.6376C420.656 58.4472 420.299 58.352 419.901 58.352C419.603 58.352 419.329 58.4189 419.08 58.5528C418.83 58.6867 418.619 58.8726 418.446 59.1106V58.4948H417.839V64.4561H418.446ZM419.918 62.2608C419.633 62.2608 419.379 62.1894 419.155 62.0466C418.932 61.9038 418.758 61.7045 418.633 61.4487C418.508 61.1929 418.446 60.9043 418.446 60.583C418.446 60.2618 418.508 59.9732 418.633 59.7174C418.758 59.4616 418.932 59.2623 419.155 59.1195C419.379 58.9767 419.633 58.9053 419.918 58.9053C420.198 58.9053 420.448 58.9767 420.668 59.1195C420.888 59.2623 421.061 59.4616 421.186 59.7174C421.311 59.9732 421.373 60.2648 421.373 60.592C421.373 60.9132 421.311 61.2003 421.186 61.4531C421.061 61.706 420.888 61.9038 420.668 62.0466C420.448 62.1894 420.198 62.2608 419.918 62.2608ZM424.657 62.8141C424.955 62.8141 425.228 62.7471 425.478 62.6133C425.728 62.4794 425.939 62.2935 426.112 62.0555V62.6713H426.719V58.4948H426.112V59.1195C425.939 58.8756 425.727 58.6867 425.474 58.5528C425.221 58.4189 424.943 58.352 424.639 58.352C424.241 58.352 423.885 58.4472 423.573 58.6376C423.261 58.828 423.017 59.0912 422.841 59.4274C422.666 59.7635 422.578 60.1458 422.578 60.5741C422.578 61.0084 422.667 61.3951 422.846 61.7343C423.024 62.0734 423.271 62.3381 423.586 62.5285C423.902 62.7189 424.259 62.8141 424.657 62.8141ZM424.639 62.2608C424.36 62.2608 424.11 62.1894 423.89 62.0466C423.67 61.9038 423.497 61.7045 423.372 61.4487C423.247 61.1929 423.185 60.9013 423.185 60.5741C423.185 60.2529 423.247 59.9658 423.372 59.7129C423.497 59.4601 423.67 59.2623 423.89 59.1195C424.11 58.9767 424.36 58.9053 424.639 58.9053C424.925 58.9053 425.179 58.9767 425.402 59.1195C425.625 59.2623 425.799 59.4616 425.924 59.7174C426.049 59.9732 426.112 60.2618 426.112 60.583C426.112 60.9043 426.049 61.1929 425.924 61.4487C425.799 61.7045 425.625 61.9038 425.402 62.0466C425.179 62.1894 424.925 62.2608 424.639 62.2608ZM428.45 62.6713V60.583C428.45 60.0714 428.557 59.6639 428.771 59.3604C428.985 59.057 429.307 58.9053 429.735 58.9053C430.473 58.9053 430.842 59.3188 430.842 60.1458V62.6713H431.448V59.878C431.448 59.5627 431.376 59.289 431.23 59.057C431.084 58.825 430.888 58.6495 430.641 58.5305C430.394 58.4115 430.125 58.352 429.833 58.352C429.524 58.352 429.252 58.4249 429.017 58.5707C428.782 58.7164 428.593 58.9232 428.45 59.1909V58.4948H427.843V62.6713H428.45ZM433.822 64.4561L436.08 58.4948H435.509L434.179 61.9574L432.796 58.4948H432.162L433.876 62.7516L433.215 64.4561H433.822Z" fill="white"/>
<path fill-rule="evenodd" clip-rule="evenodd" d="M322.319 30.4443V59.3973C320.028 60.8082 317.3 61.9704 314.287 62.7332C311.798 63.364 309.353 63.6618 307.067 63.6618C304.864 63.6618 302.808 63.3852 301 62.8607V33.908C301.001 33.908 301.003 33.9087 301.004 33.9087C301.677 34.1036 302.384 34.2645 303.122 34.3895C303.804 34.5055 304.511 34.5907 305.24 34.6432C305.835 34.6876 306.445 34.7099 307.067 34.7099C309.354 34.7099 311.798 34.411 314.287 33.781C317.3 33.0172 320.028 31.8559 322.319 30.4443ZM318.082 37.0911C317.903 37.152 317.723 37.2117 317.542 37.2701L318.082 37.2698L318.082 37.0911Z" fill="white"/>
<path fill-rule="evenodd" clip-rule="evenodd" d="M330.253 24V55.9779C327.695 57.5362 324.651 58.8199 321.287 59.6624C318.509 60.359 315.779 60.688 313.228 60.688C310.768 60.688 308.474 60.3824 306.455 59.8032V27.8255C306.456 27.8255 306.458 27.8263 306.459 27.8263C307.211 28.0415 308 28.2193 308.823 28.3573C309.585 28.4854 310.374 28.5796 311.188 28.6375C311.853 28.6866 312.534 28.7112 313.228 28.7112C315.781 28.7112 318.509 28.3811 321.287 27.6853C324.651 26.8417 327.695 25.5591 330.253 24Z" fill="white"/>
<path opacity="0.5" d="M598.861 37.1388L589.266 42.6588L579.695 37.1388L589.266 31.5996L598.861 37.1388Z" fill="white"/>
<path d="M587.132 43.885L578.623 48.8013V38.9688L587.132 43.885Z" fill="white"/>
<path opacity="0.5" d="M598.86 50.6324L589.284 56.1716L579.689 50.6324L589.284 45.1172L598.86 50.6324Z" fill="white"/>
<path d="M576.822 52.156L588.487 58.8787C588.997 59.171 589.621 59.171 590.131 58.8787L601.849 52.1224C602.945 51.4899 602.94 49.9183 601.849 49.2906L592.485 43.9047L601.691 38.6099C602.786 37.9822 602.786 36.4058 601.691 35.7781L590.116 29.1177C589.607 28.8254 588.982 28.8254 588.478 29.1177L576.822 35.826C576.312 36.1183 576 36.6597 576 37.2443V50.7424C576 51.327 576.312 51.8637 576.822 52.156ZM589.266 32.1891L597.837 37.1149L589.266 42.0456L580.694 37.1197L589.266 32.1891ZM586.109 43.8856L579.137 47.9154V39.8558L586.109 43.8856ZM589.266 55.582L580.718 50.6562L589.285 45.7256L597.857 50.6514L589.266 55.582Z" fill="white"/>
<path d="M617.886 39.0206C618.747 39.0206 619.568 39.2458 620.284 39.6531C620.961 40.0412 621.822 39.9166 622.374 39.3656C623.172 38.5702 623.032 37.2189 622.047 36.6439C620.798 35.9299 619.381 35.5418 617.886 35.5418C613.293 35.5418 609.584 39.2649 609.584 43.8649C609.584 48.4458 613.317 52.1881 617.886 52.1881C619.362 52.1881 620.798 51.7999 622.047 51.086C623.032 50.5158 623.176 49.1645 622.374 48.3883C621.822 47.8372 620.961 47.7127 620.284 48.1008C619.568 48.5081 618.727 48.7333 617.886 48.7333C615.22 48.7333 613.048 46.5435 613.048 43.8649C613.048 41.2056 615.22 39.0206 617.886 39.0206ZM637.917 35.561C636.951 35.561 636.173 36.3372 636.173 37.3004V43.8027C636.173 46.5243 634.429 48.7285 632.296 48.7285C630.162 48.7285 628.418 46.5195 628.418 43.8027V37.3004C628.418 36.3372 627.64 35.561 626.674 35.561C625.709 35.561 624.93 36.3372 624.93 37.3004V43.8027C624.93 48.4218 628.231 52.1881 632.272 52.1881C636.332 52.1881 639.613 48.4266 639.613 43.8027V37.3004C639.661 36.3372 638.883 35.561 637.917 35.561ZM667.36 35.561C665.616 35.561 663.978 36.1312 662.666 37.0752V32.087C662.666 31.1239 661.888 30.3477 660.922 30.3477C659.956 30.3477 659.178 31.1239 659.178 32.087V43.8649C659.178 48.4458 662.849 52.1881 667.36 52.1881C671.872 52.1881 675.543 48.4649 675.543 43.8649C675.524 39.3033 671.853 35.561 667.36 35.561ZM667.36 48.7524C664.756 48.7524 662.666 46.5627 662.666 43.8841C662.666 41.2056 664.78 39.0158 667.36 39.0158C669.965 39.0158 672.074 41.2056 672.074 43.8841C672.059 46.5627 669.945 48.7524 667.36 48.7524ZM679.069 35.561C678.104 35.561 677.325 36.3372 677.325 37.3004V50.4679C677.325 51.431 678.104 52.2072 679.069 52.2072C680.035 52.2072 680.813 51.431 680.813 50.4679V37.3004C680.813 36.3372 680.035 35.561 679.069 35.561ZM649.42 35.561C644.908 35.561 641.237 39.2841 641.237 43.8841C641.237 48.4649 645.052 52.2072 649.746 52.2072C651.265 52.2072 652.74 51.8191 654.013 51.0812C654.998 50.5302 655.161 49.1789 654.383 48.3835C653.83 47.8324 652.99 47.6887 652.312 48.0768C651.553 48.5081 650.674 48.7524 649.77 48.7524C647.618 48.7524 645.792 47.4443 645.057 45.6235H655.882C656.848 45.6235 657.626 44.8472 657.626 43.8841C657.602 39.3033 653.931 35.561 649.42 35.561ZM645.014 42.1447C645.691 40.3239 647.411 39.0158 649.42 39.0158C651.428 39.0158 653.153 40.3239 653.826 42.1447H645.014ZM679.069 30.3908C678.104 30.3908 677.325 31.167 677.325 32.1302C677.325 33.0933 678.104 33.8695 679.069 33.8695C680.035 33.8695 680.813 33.0933 680.813 32.1302C680.813 31.1479 680.035 30.3908 679.069 30.3908ZM690.798 35.561C686.286 35.561 682.615 39.2841 682.615 43.8841C682.615 48.4649 686.286 52.2072 690.798 52.2072C692.542 52.2072 694.18 51.637 695.511 50.6739V55.662C695.511 56.6252 696.289 57.4014 697.255 57.4014C698.221 57.4014 698.999 56.6252 698.999 55.662V43.8841C698.98 39.3033 695.309 35.561 690.798 35.561ZM690.798 48.7524C688.193 48.7524 686.084 46.5627 686.084 43.8841C686.084 41.2056 688.198 39.0158 690.798 39.0158C693.402 39.0158 695.511 41.2056 695.511 43.8841C695.511 46.5627 693.402 48.7524 690.798 48.7524Z" fill="white"/>
<path d="M880.581 47.8586V35.4875C880.581 34.7632 880.523 33.2808 880.407 31.0403L881.957 36.4726L885.636 47.8586H888.678L892.358 36.4726C892.412 36.302 892.472 36.1095 892.537 35.8952L892.617 35.6275C892.932 34.561 893.353 33.032 893.879 31.0403C893.792 33.1649 893.746 34.3673 893.741 34.6474C893.736 34.9274 893.734 35.2075 893.734 35.4875V47.8586H897.529V27.4478H891.836L888.084 39.4278L887.172 42.7016L886.476 39.9637L886.158 38.8628L882.507 27.4478H876.785V47.8586H880.581ZM905.181 48.1484C907.48 48.1484 909.199 47.1199 910.338 45.0628H910.425C910.522 46.0382 910.814 46.777 911.302 47.2792C911.789 47.7814 912.545 48.0325 913.569 48.0325C913.858 48.0325 914.112 48.0228 914.329 48.0035C914.546 47.9842 914.752 47.96 914.945 47.9311C915.138 47.9021 915.331 47.8635 915.524 47.8152C915.717 47.7669 915.935 47.7138 916.176 47.6558V45.454C915.886 45.5119 915.587 45.5409 915.278 45.5409C914.814 45.5409 914.484 45.3743 914.286 45.0411C914.088 44.7079 913.989 44.1019 913.989 43.2231V37.5156C913.989 35.7193 913.453 34.3335 912.381 33.3581C911.309 32.3827 909.783 31.895 907.803 31.895C905.843 31.895 904.295 32.2885 903.16 33.0756C902.026 33.8627 901.328 35.0192 901.067 36.545L905.312 36.7478C905.398 35.9559 905.618 35.3886 905.971 35.0457C906.323 34.7029 906.876 34.5315 907.629 34.5315C908.441 34.5315 909.025 34.7801 909.382 35.2775C909.739 35.7749 909.918 36.5354 909.918 37.5591V38.3558L906.543 38.4137C904.534 38.433 903.001 38.8676 901.944 39.7175C900.886 40.5673 900.357 41.8035 900.357 43.4259C900.357 44.9228 900.782 46.0841 901.632 46.9098C902.482 47.7355 903.665 48.1484 905.181 48.1484ZM906.485 45.3091C905.915 45.3091 905.459 45.128 905.116 44.7659C904.773 44.4037 904.602 43.8508 904.602 43.1072C904.602 42.5278 904.706 42.0642 904.913 41.7166C905.121 41.3689 905.423 41.1106 905.819 40.9415C906.214 40.7725 906.886 40.6687 907.832 40.6301L909.918 40.6011V41.3979C909.918 42.0835 909.768 42.733 909.469 43.3462C909.17 43.9595 908.757 44.4399 908.23 44.7876C907.704 45.1353 907.122 45.3091 906.485 45.3091ZM922.104 47.8586V40.1665C922.104 38.5538 922.387 37.3369 922.952 36.5161C923.517 35.6952 924.306 35.2847 925.32 35.2847C925.822 35.2847 926.402 35.3572 927.058 35.502V32.0978C926.74 31.9529 926.32 31.8805 925.798 31.8805C925.161 31.8805 924.63 31.9892 924.205 32.2065C923.78 32.4237 923.413 32.7569 923.104 33.206C922.795 33.6551 922.442 34.4301 922.046 35.531H921.988C921.988 35.2413 921.964 34.6546 921.916 33.7709C921.868 32.8873 921.829 32.3586 921.8 32.1847H917.918C917.947 32.629 917.973 33.1384 917.997 33.713C918.022 34.2876 918.034 35.0047 918.034 35.8642V47.8586H922.104ZM933.566 48.1194C934.85 48.1194 935.995 47.9552 936.999 47.6269V45.1063C936.41 45.2415 935.956 45.3091 935.637 45.3091C935.029 45.3091 934.58 45.128 934.29 44.7659C934.001 44.4037 933.856 43.8412 933.856 43.0782V34.9371H936.825V32.1847H933.856V28.5053H931.306L930.031 32.1847H927.844V34.9371H929.829V44.1792C929.829 45.5022 930.152 46.4897 930.799 47.1416C931.446 47.7935 932.368 48.1194 933.566 48.1194ZM943.478 29.3599V26.3613H939.407V29.3599H943.478ZM943.478 47.8586V32.1847H939.407V47.8586H943.478ZM951.695 47.8586V39.4567C951.695 38.1337 951.996 37.0496 952.6 36.2046C953.204 35.3596 953.998 34.9371 954.983 34.9371C956.847 34.9371 957.779 36.3133 957.779 39.0656V47.8586H961.835V37.9067C961.835 35.9366 961.391 34.4397 960.502 33.416C959.614 32.3924 958.339 31.8805 956.678 31.8805C955.529 31.8805 954.539 32.1509 953.708 32.6917C952.878 33.2326 952.187 34.1017 951.637 35.2992H951.579C951.579 34.9998 951.555 34.4518 951.506 33.6551C951.458 32.8583 951.419 32.3682 951.39 32.1847H947.508C947.537 32.6096 947.564 33.0901 947.588 33.6261C947.612 34.1621 947.624 34.8502 947.624 35.6904V47.8586H951.695ZM972.645 48.1484C975.136 48.1484 977.087 47.4265 978.497 45.9827C979.907 44.5389 980.612 42.5471 980.612 40.0072C980.612 37.39 979.938 35.3837 978.591 33.9882C977.244 32.5927 975.291 31.895 972.732 31.895C970.23 31.895 968.284 32.6169 966.894 34.0607C965.503 35.5044 964.808 37.4866 964.808 40.0072C964.808 42.5374 965.503 44.5268 966.894 45.9755C968.284 47.4241 970.201 48.1484 972.645 48.1484ZM972.601 45.367C971.462 45.367 970.59 44.9107 969.987 43.9981C969.383 43.0855 969.081 41.7552 969.081 40.0072C969.081 36.4629 970.317 34.6908 972.79 34.6908C973.949 34.6908 974.832 35.1109 975.441 35.9511C976.049 36.7913 976.353 38.1433 976.353 40.0072C976.353 43.5804 975.103 45.367 972.601 45.367Z" fill="white"/>
<path opacity="0.595853" d="M917.134 60.6403C917.443 60.6403 917.729 60.5909 917.993 60.4921C918.256 60.3933 918.478 60.2616 918.658 60.0969C918.838 59.9323 918.987 59.7651 919.106 59.5954C919.225 59.4257 919.323 59.2496 919.399 59.0672L918.502 58.7861C918.391 59.0647 918.212 59.3003 917.966 59.4928C917.721 59.6853 917.438 59.7816 917.119 59.7816C916.628 59.7816 916.235 59.5764 915.941 59.166C915.647 58.7557 915.5 58.1984 915.5 57.4942C915.5 56.8001 915.646 56.2467 915.937 55.8338C916.229 55.4209 916.622 55.2144 917.119 55.2144C917.641 55.2144 918.064 55.5057 918.388 56.0883L919.247 55.8072C919.069 55.3968 918.8 55.0523 918.437 54.7737C918.075 54.495 917.641 54.3557 917.134 54.3557C916.349 54.3557 915.708 54.6382 915.212 55.203C914.715 55.7679 914.467 56.5316 914.467 57.4942C914.467 58.472 914.719 59.2408 915.223 59.8006C915.727 60.3604 916.364 60.6403 917.134 60.6403ZM921.868 60.6403C922.172 60.6403 922.445 60.5896 922.685 60.4883C922.926 60.387 923.12 60.2565 923.267 60.0969C923.414 59.9374 923.535 59.7524 923.631 59.5422C923.728 59.332 923.795 59.1255 923.833 58.9229C923.871 58.7202 923.89 58.5176 923.89 58.3149C923.89 57.6614 923.718 57.1092 923.373 56.6583C923.029 56.2074 922.527 55.982 921.868 55.982C921.205 55.982 920.701 56.2074 920.356 56.6583C920.012 57.1092 919.839 57.6614 919.839 58.3149C919.839 58.5277 919.858 58.7367 919.896 58.9419C919.934 59.147 920.003 59.3548 920.102 59.565C920.2 59.7752 920.325 59.9576 920.474 60.1121C920.623 60.2667 920.818 60.3933 921.059 60.4921C921.3 60.5909 921.57 60.6403 921.868 60.6403ZM921.868 59.8196C921.59 59.8196 921.347 59.6955 921.139 59.4472C920.931 59.199 920.827 58.8215 920.827 58.3149C920.827 57.7982 920.932 57.4169 921.143 57.1712C921.353 56.9255 921.595 56.8027 921.868 56.8027C922.142 56.8027 922.383 56.9255 922.59 57.1712C922.798 57.4169 922.902 57.7982 922.902 58.3149C922.902 58.8215 922.798 59.199 922.59 59.4472C922.383 59.6955 922.142 59.8196 921.868 59.8196ZM925.721 60.5035V54.2949H924.764V60.5035H925.721ZM928.624 60.6403C928.928 60.6403 929.2 60.5896 929.441 60.4883C929.682 60.387 929.876 60.2565 930.022 60.0969C930.169 59.9374 930.291 59.7524 930.387 59.5422C930.483 59.332 930.551 59.1255 930.589 58.9229C930.627 58.7202 930.646 58.5176 930.646 58.3149C930.646 57.6614 930.473 57.1092 930.129 56.6583C929.784 56.2074 929.283 55.982 928.624 55.982C927.961 55.982 927.456 56.2074 927.112 56.6583C926.767 57.1092 926.595 57.6614 926.595 58.3149C926.595 58.5277 926.614 58.7367 926.652 58.9419C926.69 59.147 926.759 59.3548 926.857 59.565C926.956 59.7752 927.08 59.9576 927.23 60.1121C927.379 60.2667 927.574 60.3933 927.815 60.4921C928.056 60.5909 928.325 60.6403 928.624 60.6403ZM928.624 59.8196C928.346 59.8196 928.102 59.6955 927.895 59.4472C927.687 59.199 927.583 58.8215 927.583 58.3149C927.583 57.7982 927.688 57.4169 927.898 57.1712C928.109 56.9255 928.351 56.8027 928.624 56.8027C928.898 56.8027 929.138 56.9255 929.346 57.1712C929.554 57.4169 929.658 57.7982 929.658 58.3149C929.658 58.8215 929.554 59.199 929.346 59.4472C929.138 59.6955 928.898 59.8196 928.624 59.8196ZM932.401 60.5035V58.2693C932.401 57.8438 932.488 57.5031 932.663 57.2472C932.838 56.9914 933.09 56.8635 933.419 56.8635C933.607 56.8635 933.797 56.8939 933.989 56.9547V56.0807C933.842 56.0149 933.652 55.982 933.419 55.982C933.171 55.982 932.957 56.0427 932.777 56.1643C932.597 56.2859 932.459 56.4278 932.363 56.5899V56.1187H931.436V60.5035H932.401ZM936.064 60.6403C936.616 60.6403 937.043 60.5149 937.344 60.2641C937.646 60.0134 937.796 59.7081 937.796 59.3484C937.796 58.7658 937.346 58.3301 936.444 58.0414C936.418 58.0312 936.378 58.0186 936.322 58.0034C936.109 57.9324 935.945 57.8742 935.828 57.8286C935.712 57.783 935.599 57.7108 935.49 57.612C935.381 57.5132 935.327 57.4005 935.327 57.2738C935.327 57.1218 935.389 56.999 935.513 56.9053C935.637 56.8115 935.816 56.7647 936.049 56.7647C936.474 56.7647 936.836 56.9699 937.135 57.3802L937.774 56.9927C937.617 56.6988 937.379 56.4569 937.059 56.2669C936.74 56.0769 936.401 55.982 936.041 55.982C935.56 55.982 935.157 56.0985 934.833 56.3315C934.509 56.5646 934.346 56.8736 934.346 57.2586C934.346 57.4562 934.382 57.6297 934.453 57.7792C934.524 57.9286 934.628 58.0527 934.764 58.1515C934.901 58.2503 935.032 58.3289 935.156 58.3871C935.28 58.4454 935.433 58.5049 935.615 58.5657C935.636 58.5708 935.669 58.5809 935.714 58.5961C935.968 58.6772 936.158 58.7417 936.284 58.7899C936.411 58.838 936.531 58.9102 936.645 59.0065C936.759 59.1027 936.816 59.2142 936.816 59.3408C936.816 59.4979 936.747 59.6233 936.607 59.717C936.468 59.8107 936.279 59.8576 936.041 59.8576C935.555 59.8576 935.16 59.6347 934.856 59.1888L934.164 59.5916C934.341 59.9158 934.596 60.1717 934.928 60.3591C935.26 60.5466 935.638 60.6403 936.064 60.6403ZM942.227 60.6403C942.531 60.6403 942.803 60.5896 943.044 60.4883C943.284 60.387 943.478 60.2565 943.625 60.0969C943.772 59.9374 943.894 59.7524 943.99 59.5422C944.086 59.332 944.153 59.1255 944.191 58.9229C944.229 58.7202 944.248 58.5176 944.248 58.3149C944.248 57.6614 944.076 57.1092 943.731 56.6583C943.387 56.2074 942.885 55.982 942.227 55.982C941.563 55.982 941.059 56.2074 940.715 56.6583C940.37 57.1092 940.198 57.6614 940.198 58.3149C940.198 58.5277 940.217 58.7367 940.255 58.9419C940.293 59.147 940.361 59.3548 940.46 59.565C940.559 59.7752 940.683 59.9576 940.832 60.1121C940.982 60.2667 941.177 60.3933 941.418 60.4921C941.658 60.5909 941.928 60.6403 942.227 60.6403ZM942.227 59.8196C941.948 59.8196 941.705 59.6955 941.497 59.4472C941.29 59.199 941.186 58.8215 941.186 58.3149C941.186 57.7982 941.291 57.4169 941.501 57.1712C941.711 56.9255 941.953 56.8027 942.227 56.8027C942.5 56.8027 942.741 56.9255 942.949 57.1712C943.156 57.4169 943.26 57.7982 943.26 58.3149C943.26 58.8215 943.156 59.199 942.949 59.4472C942.741 59.6955 942.5 59.8196 942.227 59.8196ZM946.338 60.5035V56.9395H947.25V56.1187H946.338V55.716C946.338 55.5032 946.375 55.3487 946.448 55.2524C946.522 55.1562 946.637 55.108 946.794 55.108H947.349V54.2949H946.657C946.247 54.2949 945.929 54.4076 945.703 54.6331C945.478 54.8585 945.365 55.1967 945.365 55.6476V56.1187H944.697V56.9395H945.365V60.5035H946.338ZM950.054 62.2969C950.434 62.2969 950.752 62.2057 951.008 62.0234C951.264 61.841 951.473 61.5269 951.635 61.081L953.451 56.1187H952.402L951.711 58.3757C951.549 58.9583 951.455 59.2952 951.43 59.3864H951.399C951.333 59.128 951.237 58.7911 951.11 58.3757L950.358 56.1187H949.302L950.943 60.3971L950.799 60.8303C950.713 61.0734 950.597 61.2444 950.453 61.3432C950.309 61.442 950.122 61.4914 949.894 61.4914H949.758V62.2969H950.054ZM955.807 60.6403C956.111 60.6403 956.383 60.5896 956.624 60.4883C956.864 60.387 957.058 60.2565 957.205 60.0969C957.352 59.9374 957.473 59.7524 957.57 59.5422C957.666 59.332 957.733 59.1255 957.771 58.9229C957.809 58.7202 957.828 58.5176 957.828 58.3149C957.828 57.6614 957.656 57.1092 957.311 56.6583C956.967 56.2074 956.465 55.982 955.807 55.982C955.143 55.982 954.639 56.2074 954.294 56.6583C953.95 57.1092 953.778 57.6614 953.778 58.3149C953.778 58.5277 953.797 58.7367 953.835 58.9419C953.873 59.147 953.941 59.3548 954.04 59.565C954.139 59.7752 954.263 59.9576 954.412 60.1121C954.562 60.2667 954.757 60.3933 954.997 60.4921C955.238 60.5909 955.508 60.6403 955.807 60.6403ZM955.807 59.8196C955.528 59.8196 955.285 59.6955 955.077 59.4472C954.869 59.199 954.766 58.8215 954.766 58.3149C954.766 57.7982 954.871 57.4169 955.081 57.1712C955.291 56.9255 955.533 56.8027 955.807 56.8027C956.08 56.8027 956.321 56.9255 956.529 57.1712C956.736 57.4169 956.84 57.7982 956.84 58.3149C956.84 58.8215 956.736 59.199 956.529 59.4472C956.321 59.6955 956.08 59.8196 955.807 59.8196ZM960.039 60.6403C960.338 60.6403 960.588 60.5719 960.788 60.4351C960.988 60.2983 961.124 60.1514 961.195 59.9944H961.202V60.5035H962.129V56.1187H961.172V58.5733C961.172 58.9127 961.091 59.2053 960.929 59.451C960.766 59.6967 960.541 59.8196 960.252 59.8196C959.771 59.8196 959.53 59.4776 959.53 58.7937V56.1187H958.565V58.9153C958.565 59.2446 958.611 59.5283 958.702 59.7664C958.793 60.0045 958.915 60.1831 959.067 60.3021C959.219 60.4212 959.375 60.5073 959.534 60.5605C959.694 60.6137 959.862 60.6403 960.039 60.6403ZM964.143 60.5035V58.2693C964.143 57.8438 964.23 57.5031 964.405 57.2472C964.58 56.9914 964.832 56.8635 965.161 56.8635C965.349 56.8635 965.539 56.8939 965.731 56.9547V56.0807C965.584 56.0149 965.394 55.982 965.161 55.982C964.913 55.982 964.699 56.0427 964.519 56.1643C964.339 56.2859 964.201 56.4278 964.105 56.5899V56.1187H963.178V60.5035H964.143ZM969.174 60.5035V54.2949H968.216V60.5035H969.174ZM971.385 55.4652V54.4089H970.352V55.4652H971.385ZM971.347 60.5035V56.1187H970.397V60.5035H971.347ZM973.787 60.5035V56.9395H974.698V56.1187H973.787V55.716C973.787 55.5032 973.823 55.3487 973.897 55.2524C973.97 55.1562 974.085 55.108 974.242 55.108H974.797V54.2949H974.106C973.695 54.2949 973.377 54.4076 973.152 54.6331C972.927 54.8585 972.814 55.1967 972.814 55.6476V56.1187H972.145V56.9395H972.814V60.5035H973.787ZM977.153 60.6403C977.629 60.6403 978.027 60.5314 978.346 60.3135C978.665 60.0957 978.896 59.8246 979.038 59.5004L978.232 59.2268C978.136 59.4143 977.995 59.5675 977.81 59.6866C977.625 59.8056 977.411 59.8652 977.168 59.8652C976.819 59.8652 976.544 59.7448 976.344 59.5042C976.144 59.2636 976.043 58.9761 976.043 58.6417H979.083C979.098 58.515 979.106 58.3858 979.106 58.2541C979.106 57.5803 978.919 57.0332 978.544 56.6127C978.169 56.1922 977.693 55.982 977.115 55.982C976.527 55.982 976.04 56.1909 975.652 56.6089C975.265 57.0269 975.071 57.5879 975.071 58.2921C975.071 59.0065 975.265 59.5764 975.652 60.002C976.04 60.4275 976.54 60.6403 977.153 60.6403ZM978.126 57.9654H976.059C976.064 57.6411 976.161 57.3587 976.351 57.118C976.541 56.8774 976.796 56.7571 977.115 56.7571C977.434 56.7571 977.682 56.8749 977.86 57.1104C978.037 57.346 978.126 57.631 978.126 57.9654Z" fill="white"/>
<path d="M840.754 29.9057V60.1707C840.754 60.4604 840.605 60.7283 840.362 60.8752C840.119 61.0222 839.819 61.0261 839.572 60.8856L832.41 56.7958C832.157 56.6517 832 56.378 832 56.0809V25.8158C832 25.5262 832.149 25.2582 832.392 25.1113C832.635 24.9644 832.935 24.9604 833.182 25.1009L840.344 29.1908C840.597 29.3349 840.754 29.6086 840.754 29.9057Z" fill="white"/>
<path d="M852.426 29.9076V60.1727C852.426 60.4623 852.277 60.7303 852.034 60.8772C851.791 61.0241 851.491 61.0281 851.244 60.8876L844.082 56.7977C843.829 56.6536 843.672 56.3799 843.672 56.0828V25.8178C843.672 25.5281 843.821 25.2602 844.064 25.1132C844.307 24.9663 844.607 24.9624 844.854 25.1029L852.016 29.1927C852.269 29.3368 852.426 29.6105 852.426 29.9076Z" fill="white"/>
<path d="M864.098 29.9076V60.1727C864.098 60.4623 863.949 60.7303 863.706 60.8772C863.463 61.0241 863.163 61.0281 862.916 60.8876L855.754 56.7977C855.501 56.6536 855.344 56.3799 855.344 56.0828V25.8178C855.344 25.5281 855.493 25.2602 855.736 25.1132C855.979 24.9663 856.279 24.9624 856.526 25.1029L863.688 29.1927C863.941 29.3368 864.098 29.6105 864.098 29.9076Z" fill="white"/>
</svg>
