<svg width="16" height="16" viewBox="0 0 16 16" fill="none" xmlns="http://www.w3.org/2000/svg">
<path d="M3.98397 1.07198C2.75758 1.78717 1.78639 2.75757 1.07199 3.98476C0.357597 5.21115 -4.13087e-07 6.54954 -3.49689e-07 7.99993C-2.8629e-07 9.45032 0.357597 10.7887 1.07199 12.0159C1.78639 13.2423 2.75758 14.2135 3.98397 14.9279C5.21036 15.6423 6.54955 15.9999 7.99995 15.9999C9.45034 15.9999 10.7895 15.6431 12.0159 14.9279C13.2431 14.2127 14.2135 13.2423 14.9279 12.0151C15.6423 10.7887 15.9999 9.45032 15.9999 7.99993C15.9999 6.54954 15.6423 5.21115 14.9279 3.98396C14.2135 2.75756 13.2431 1.78637 12.0159 1.07118C10.7895 0.356782 9.45033 -1.61077e-05 7.99994 -1.60443e-05C6.54955 -1.59809e-05 5.21036 0.356782 3.98397 1.07198ZM1.32799 7.99993C1.32799 6.39994 1.83999 4.98235 2.86318 3.74396C3.80237 4.47995 4.57517 5.57275 5.18316 7.02394C3.73277 7.82553 2.52158 8.69433 1.55119 9.63272C1.40239 9.08712 1.32799 8.54473 1.32799 7.99993ZM3.83997 13.1919C3.08238 12.5887 2.49118 11.8671 2.06399 11.0231C3.02478 10.0535 4.22397 9.16312 5.66396 8.35113C6.14396 9.95112 6.38396 11.6423 6.38396 13.4239C6.38396 13.8823 6.37356 14.2287 6.35196 14.4639C5.43436 14.2183 4.59757 13.7943 3.83997 13.1919ZM7.99995 14.6719C7.95675 14.6719 7.90395 14.6695 7.83995 14.6639C7.77595 14.6583 7.72315 14.6559 7.67995 14.6559C7.69115 14.4527 7.69595 14.1431 7.69595 13.7271C7.69595 11.5943 7.40235 9.61032 6.81595 7.77593C7.11435 7.62633 7.45035 7.47113 7.82395 7.31193C8.05834 8.36793 8.62874 9.45112 9.53593 10.5607C10.4431 11.6703 11.3975 12.4799 12.3999 12.9919C11.1303 14.1119 9.66393 14.6719 7.99995 14.6719ZM14.6719 7.99993C14.6719 9.51512 14.2023 10.8751 13.2647 12.0807C12.3151 11.5999 11.4071 10.8615 10.5439 9.86392C9.67993 8.86712 9.14154 7.87753 8.92794 6.89594C10.6343 6.27834 12.3991 5.86154 14.2239 5.64794C14.5223 6.42714 14.6719 7.21113 14.6719 7.99993ZM11.5039 2.33597C12.3567 2.86876 13.0559 3.55676 13.6007 4.39995C11.9367 4.59195 10.3151 4.95995 8.73594 5.50315C8.68314 4.75755 8.65594 4.09116 8.65594 3.50316C8.65594 2.86396 8.68314 2.15437 8.73594 1.37597C9.72793 1.48317 10.6503 1.80317 11.5039 2.33597ZM7.50395 3.32796C7.50395 4.25595 7.54155 5.11435 7.61595 5.90394C7.09355 6.10714 6.66155 6.28794 6.31996 6.44794C5.59516 4.79515 4.71517 3.62236 3.67997 2.92876C4.81117 1.96877 6.10156 1.44557 7.55195 1.36078C7.51995 2.01037 7.50395 2.66637 7.50395 3.32796Z" fill="#141313"/>
</svg>
