<svg width="21" height="21" viewBox="0 0 21 21" fill="none" xmlns="http://www.w3.org/2000/svg">
<path fill-rule="evenodd" clip-rule="evenodd" d="M4.31273 3.8753C5.85042 2.33761 8.34351 2.33761 9.8812 3.8753C11.4189 5.41299 11.4189 7.90607 9.8812 9.44376C9.30884 10.0161 8.60411 10.3754 7.86555 10.5217L10.0407 12.6968C10.187 11.9583 10.5463 11.2536 11.1186 10.6812C12.6563 9.14351 15.1494 9.14351 16.6871 10.6812C18.2248 12.2189 18.2248 14.712 16.6871 16.2497C15.254 17.6828 12.991 17.7802 11.445 16.542L11.428 16.559L11.1186 16.2497L4.31273 9.44376L4.00337 9.1344L4.02037 9.11741C2.78216 7.57142 2.87961 5.30842 4.31273 3.8753ZM12.3561 15.0122C13.2103 15.8665 14.5954 15.8665 15.4497 15.0122C16.3039 14.158 16.3039 12.7729 15.4497 11.9186C14.5954 11.0644 13.2103 11.0644 12.3561 11.9186C11.5018 12.7729 11.5018 14.158 12.3561 15.0122ZM8.64376 8.20632C7.78949 9.0606 6.40444 9.0606 5.55017 8.20632C4.6959 7.35205 4.6959 5.96701 5.55017 5.11273C6.40444 4.25846 7.78949 4.25846 8.64376 5.11273C9.49803 5.96701 9.49803 7.35205 8.64376 8.20632Z" fill="#141313"/>
</svg>
