<svg width="21" height="21" viewBox="0 0 21 21" fill="none" xmlns="http://www.w3.org/2000/svg">
<path d="M20.7245 6.17407C20.6758 5.05826 20.4972 4.29115 20.2414 3.62643C19.9776 2.92086 19.5716 2.28916 19.0397 1.76402C18.5201 1.23071 17.8908 0.816308 17.2007 0.553821C16.5391 0.295339 15.7839 0.114899 14.6797 0.0657021C13.5673 0.0123392 13.2141 0 10.3927 0C7.57123 0 7.21807 0.0123392 6.10976 0.0615356C5.00557 0.110732 4.24645 0.291333 3.58882 0.549654C2.89043 0.816308 2.26531 1.22655 1.74565 1.76402C1.21789 2.28916 0.807964 2.92503 0.548052 3.62243C0.292263 4.29115 0.113702 5.05409 0.0650177 6.16991C0.0122106 7.29405 0 7.65093 0 10.5021C0 13.3532 0.0122106 13.7101 0.0608946 14.8301C0.109579 15.9459 0.288298 16.713 0.544087 17.3777C0.807964 18.0833 1.21789 18.715 1.74565 19.2401C2.26531 19.7734 2.89456 20.1878 3.5847 20.4503C4.24645 20.7088 5.00145 20.8893 6.1058 20.9385C7.21395 20.9878 7.56727 21 10.3887 21C13.2102 21 13.5633 20.9878 14.6716 20.9385C15.7758 20.8893 16.535 20.7088 17.1926 20.4503C18.5892 19.9047 19.6934 18.7889 20.2333 17.3777C20.489 16.709 20.6677 15.9459 20.7164 14.8301C20.7651 13.7101 20.7773 13.3532 20.7773 10.5021C20.7773 7.65093 20.7732 7.29405 20.7245 6.17407ZM18.8531 14.748C18.8084 15.7736 18.6379 16.3275 18.4958 16.6967C18.1466 17.6115 17.4281 18.3376 16.5227 18.6905C16.1574 18.8341 15.6054 19.0063 14.5944 19.0514C13.4983 19.1007 13.1696 19.1129 10.3968 19.1129C7.62404 19.1129 7.29118 19.1007 6.19904 19.0514C5.18413 19.0063 4.63608 18.8341 4.27071 18.6905C3.82019 18.5222 3.4101 18.2556 3.07724 17.9069C2.73217 17.5663 2.46829 17.1561 2.30178 16.7008C2.1597 16.3316 1.98922 15.7736 1.94466 14.7522C1.89582 13.6446 1.88377 13.3122 1.88377 10.5103C1.88377 7.7083 1.89582 7.37193 1.94466 6.26846C1.98922 5.24287 2.1597 4.68905 2.30178 4.31983C2.46829 3.8644 2.73217 3.45016 3.08136 3.11364C3.41819 2.76494 3.82415 2.49828 4.27483 2.33018C4.6402 2.1866 5.19238 2.01433 6.20316 1.96914C7.29927 1.91994 7.62816 1.9076 10.4008 1.9076C13.1777 1.9076 13.5064 1.91994 14.5985 1.96914C15.6134 2.01433 16.1615 2.1866 16.5269 2.33018C16.9774 2.49828 17.3875 2.76494 17.7203 3.11364C18.0654 3.45417 18.3293 3.8644 18.4958 4.31983C18.6379 4.68905 18.8084 5.24687 18.8531 6.26846C18.9018 7.3761 18.914 7.7083 18.914 10.5103C18.914 13.3122 18.9018 13.6404 18.8531 14.748Z" fill="#141313"/>
<path d="M10.391 5.10769C7.44378 5.10769 5.05255 7.52392 5.05255 10.5023C5.05255 13.4807 7.44378 15.8969 10.391 15.8969C13.3383 15.8969 15.7294 13.4807 15.7294 10.5023C15.7294 7.52392 13.3383 5.10769 10.391 5.10769ZM10.391 14.0017C8.47899 14.0017 6.92808 12.4346 6.92808 10.5023C6.92808 8.57003 8.47899 7.00295 10.391 7.00295C12.3031 7.00295 13.8539 8.57003 13.8539 10.5023C13.8539 12.4346 12.3031 14.0017 10.391 14.0017Z" fill="#141313"/>
<path d="M17.1888 4.89393C17.1888 5.58927 16.6309 6.15308 15.9426 6.15308C15.2545 6.15308 14.6966 5.58927 14.6966 4.89393C14.6966 4.19842 15.2545 3.63477 15.9426 3.63477C16.6309 3.63477 17.1888 4.19842 17.1888 4.89393Z" fill="#141313"/>
</svg>
