<svg width="21" height="21" viewBox="0 0 21 21" fill="none" xmlns="http://www.w3.org/2000/svg">
<path fill-rule="evenodd" clip-rule="evenodd" d="M4.37478 3.49999C2.92503 3.49999 1.74978 4.67525 1.74978 6.12499V14.875C1.74978 16.3247 2.92503 17.5 4.37478 17.5H16.6248C18.0745 17.5 19.2498 16.3247 19.2498 14.875V6.12499C19.2498 4.67525 18.0745 3.49999 16.6248 3.49999H4.37478ZM3.57968 5.75919C3.71819 5.45862 4.02212 5.24999 4.37478 5.24999H16.6248C16.9774 5.24999 17.2814 5.45862 17.4199 5.75919L11.037 10.7237C10.721 10.9694 10.2785 10.9694 9.96258 10.7237L3.57968 5.75919ZM3.49978 7.91405V13.0068L6.66081 10.3726L3.49978 7.91405ZM3.57232 15.2244C3.7072 15.5337 4.01573 15.75 4.37478 15.75H16.6248C16.9838 15.75 17.2924 15.5337 17.4272 15.2244L12.9248 11.4724L12.1114 12.105C11.1635 12.8423 9.8361 12.8423 8.88818 12.105L8.07474 11.4724L3.57232 15.2244ZM17.4998 13.0068V7.91405L14.3387 10.3726L17.4998 13.0068Z" fill="#141313"/>
</svg>
