<svg width="67" height="43" viewBox="0 0 67 43" fill="none" xmlns="http://www.w3.org/2000/svg">
<rect x="19.5503" y="0.66571" width="3.99454" height="3.99454" fill="#010101"/>
<rect x="0.000244141" y="0.66571" width="3.99454" height="3.99454" fill="#010101"/>
<rect x="42.1211" width="3.99454" height="3.99454" transform="rotate(30 42.1211 0)" fill="#010101"/>
<rect x="64.2866" width="3.99454" height="3.99454" transform="rotate(60 64.2866 0)" fill="#010101"/>
<rect x="19.55" y="19.4378" width="3.99454" height="3.99454" fill="#010101"/>
<rect y="19.4376" width="3.99454" height="3.99454" fill="#010101"/>
<rect x="42.1858" y="18.7719" width="3.99454" height="3.99454" transform="rotate(30 42.1858 18.7719)" fill="#010101"/>
<rect x="64.2864" y="18.7719" width="3.99454" height="3.99454" transform="rotate(60 64.2864 18.7719)" fill="#010101"/>
<rect x="19.55" y="38.209" width="3.99454" height="3.99454" fill="#010101"/>
<rect y="38.209" width="3.99454" height="3.99454" fill="#010101"/>
<rect x="42.1858" y="37.5433" width="3.99454" height="3.99454" transform="rotate(30 42.1858 37.5433)" fill="#010101"/>
<rect x="64.2864" y="37.5433" width="3.99454" height="3.99454" transform="rotate(60 64.2864 37.5433)" fill="#010101"/>
</svg>
